<svg xmlns="http://www.w3.org/2000/svg" width="512" height="512" viewBox="0 0 512 512" version="1.1"><path d="" stroke="none" fill="#080404" fill-rule="evenodd"/><path d="M 46.111 2.560 C 42.189 5.861, 41.128 10.948, 43.378 15.667 C 46.003 21.171, 49.350 22, 68.957 22 C 83.336 22, 86.765 22.299, 91.045 23.925 C 98.637 26.810, 104.422 32.070, 107.929 39.276 C 110.845 45.268, 111.686 50.754, 130.498 186.500 C 141.246 264.050, 150.947 330.828, 152.056 334.895 C 160.527 365.946, 185.301 391.468, 216.500 401.281 C 230.612 405.720, 237.194 405.994, 329.782 405.997 C 425.391 406, 422.299 406.190, 425.434 400.128 C 428.012 395.142, 427.451 391.251, 423.600 387.400 L 420.200 384 331.850 383.969 C 283.255 383.952, 240.273 383.519, 236.328 383.006 C 211.823 379.822, 190.467 364.925, 179.108 343.091 C 175.318 335.806, 172 325.873, 172 321.813 C 172 320.135, 178.126 320.032, 293.750 319.773 L 415.500 319.500 424.288 316.743 C 455.517 306.947, 478.799 284.876, 489.087 255.313 C 490.200 252.116, 495.811 226.132, 501.555 197.570 C 512.647 142.423, 513.443 136.011, 510.547 125.131 C 509.761 122.178, 507.889 117.228, 506.386 114.131 C 502.693 106.521, 491.294 95.184, 483.260 91.130 C 470.499 84.691, 480.591 85.031, 301.769 85.015 L 139.038 85 138.532 82.750 C 138.253 81.513, 136.889 72.175, 135.502 62 C 134.114 51.825, 132.088 40.521, 131 36.880 C 126.226 20.907, 112.178 7.227, 95.145 1.964 C 89.734 0.292, 85.843 -0, 68.971 -0 C 49.167 -0, 49.151 0.002, 46.111 2.560 M 142.331 110.238 C 142.637 112.032, 148.634 155.023, 155.657 205.773 L 168.427 298.046 290.463 297.773 L 412.500 297.500 420.167 294.883 C 432.813 290.565, 440.593 285.622, 450.511 275.603 C 459.825 266.194, 464.304 259.229, 468.083 248.275 C 469.178 245.099, 474.591 220.225, 480.110 193 C 488.618 151.037, 490.082 142.434, 489.731 136.500 C 489.046 124.941, 482.684 115.448, 472.161 110.280 L 466.500 107.500 304.136 107.238 L 141.773 106.976 142.331 110.238 M 178.287 428.866 C 157.163 436.165, 144.942 458.586, 150.414 480 C 153.687 492.809, 161.769 502.537, 174 508.390 C 179.681 511.108, 181.759 511.542, 190.500 511.832 C 198.766 512.106, 201.472 511.800, 206.105 510.064 C 218.105 505.570, 227.729 496.323, 232.192 485 C 235.096 477.634, 235.333 462.889, 232.670 455.252 C 228.535 443.391, 216.667 432.057, 204.643 428.486 C 197.736 426.435, 184.783 426.622, 178.287 428.866 M 370.287 428.866 C 349.163 436.165, 336.942 458.586, 342.414 480 C 345.687 492.809, 353.769 502.537, 366 508.390 C 371.681 511.108, 373.759 511.542, 382.500 511.832 C 390.766 512.106, 393.472 511.800, 398.105 510.064 C 410.105 505.570, 419.729 496.323, 424.192 485 C 427.096 477.634, 427.333 462.889, 424.670 455.252 C 420.535 443.391, 408.667 432.057, 396.643 428.486 C 389.736 426.435, 376.783 426.622, 370.287 428.866 M 183.500 450.400 C 176.702 453.397, 171.063 462.052, 171.022 469.554 C 170.990 475.367, 175.174 483.155, 180.198 486.637 C 183.867 489.180, 185.187 489.500, 192 489.500 C 198.813 489.500, 200.133 489.180, 203.802 486.637 C 208.826 483.155, 213.010 475.367, 212.978 469.554 C 212.937 461.970, 206.591 452.665, 199.685 450.061 C 195.839 448.611, 187.146 448.793, 183.500 450.400 M 375.500 450.400 C 368.702 453.397, 363.063 462.052, 363.022 469.554 C 362.990 475.367, 367.174 483.155, 372.198 486.637 C 375.867 489.180, 377.187 489.500, 384 489.500 C 390.813 489.500, 392.133 489.180, 395.802 486.637 C 400.826 483.155, 405.010 475.367, 404.978 469.554 C 404.937 461.970, 398.591 452.665, 391.685 450.061 C 387.839 448.611, 379.146 448.793, 375.500 450.400" stroke="none" fill="#040404" fill-rule="evenodd"/></svg>