<?xml version="1.0" encoding="UTF-8"?>
<svg id="Layer_2" xmlns="http://www.w3.org/2000/svg" viewBox="0 0 560.14 766.81">
    <g id="Layer_1-2">
        <path
            d="M525.44,4.43c-.23.05-.46.07-.68.07s-.46-.02-.69-.07c-.22-.04-.44-.11-.65-.2-.21-.09-.42-.19-.61-.32s-.37-.28-.53-.44c-.65-.65-1.02-1.55-1.02-2.47,0-.34.07-.68.16-1h-8.27c.1.32.16.65.16,1,0,1.93-1.57,3.5-3.5,3.5s-3.5-1.57-3.5-3.5c0-.35.07-.68.16-1h-8.26c.1.32.16.65.16,1,0,1.93-1.57,3.5-3.5,3.5s-3.5-1.57-3.5-3.5c0-.35.07-.68.16-1h-8.27c.1.32.16.65.16,1,0,1.93-1.56,3.5-3.5,3.5s-3.5-1.57-3.5-3.5c0-.35.07-.68.16-1h-8.26c.1.32.16.65.16,1,0,1.93-1.57,3.5-3.5,3.5s-3.5-1.57-3.5-3.5c0-.35.07-.68.16-1h-8.27c.1.32.16.65.16,1,0,1.93-1.56,3.5-3.5,3.5s-3.5-1.57-3.5-3.5c0-.35.07-.68.16-1h-8.26c.1.32.16.65.16,1,0,1.93-1.57,3.5-3.5,3.5s-3.5-1.57-3.5-3.5c0-.35.07-.68.16-1h-8.26c.1.32.16.65.16,1,0,1.93-1.57,3.5-3.5,3.5s-3.5-1.57-3.5-3.5c0-.35.07-.68.16-1h-8.27c.1.32.16.65.16,1,0,1.93-1.57,3.5-3.5,3.5s-3.5-1.57-3.5-3.5c0-.35.07-.68.16-1h-8.26c.1.32.16.65.16,1,0,1.93-1.57,3.5-3.5,3.5s-3.5-1.57-3.5-3.5c0-.35.07-.68.16-1h-8.27c.1.32.16.65.16,1,0,1.93-1.56,3.5-3.5,3.5s-3.5-1.57-3.5-3.5c0-.35.07-.68.16-1h-8.26c.1.32.16.65.16,1,0,1.93-1.57,3.5-3.5,3.5s-3.5-1.57-3.5-3.5c0-.35.07-.68.16-1h-8.27c.1.32.16.65.16,1,0,1.93-1.56,3.5-3.5,3.5s-3.49-1.57-3.49-3.5c0-.35.07-.68.16-1h-8.27c.1.32.16.65.16,1,0,1.93-1.57,3.5-3.5,3.5s-3.5-1.57-3.5-3.5c0-.35.07-.68.16-1h-8.26c.1.32.16.65.16,1,0,1.93-1.57,3.5-3.5,3.5s-3.5-1.57-3.5-3.5c0-.35.07-.68.16-1h-8.27c.1.32.16.65.16,1,0,1.93-1.57,3.5-3.5,3.5s-3.5-1.57-3.5-3.5c0-.35.07-.68.16-1h-8.26c.1.32.16.65.16,1,0,1.93-1.57,3.5-3.5,3.5s-3.5-1.57-3.5-3.5c0-.35.07-.68.16-1h-8.26c.1.32.16.65.16,1,0,1.93-1.56,3.5-3.5,3.5s-3.5-1.57-3.5-3.5c0-.35.07-.68.16-1h-8.26c.1.32.16.65.16,1,0,1.93-1.57,3.5-3.5,3.5s-3.5-1.57-3.5-3.5c0-.35.07-.68.16-1h-8.26c.1.32.16.65.16,1,0,1.93-1.57,3.5-3.51,3.5s-3.49-1.57-3.49-3.5c0-.35.07-.68.16-1h-8.27c.1.32.16.65.16,1,0,1.93-1.57,3.5-3.5,3.5s-3.5-1.57-3.5-3.5c0-.35.07-.68.16-1h-8.26c.1.32.16.65.16,1,0,1.93-1.57,3.5-3.5,3.5s-3.5-1.57-3.5-3.5c0-.35.07-.68.16-1h-8.27c.1.32.16.65.16,1,0,1.93-1.57,3.5-3.5,3.5s-3.5-1.57-3.5-3.5c0-.35.07-.68.16-1h-8.26c.1.32.16.65.16,1,0,1.93-1.57,3.5-3.5,3.5s-3.5-1.57-3.5-3.5c0-.35.07-.68.16-1h-8.27c.1.32.16.65.16,1,0,1.93-1.56,3.5-3.5,3.5s-3.5-1.57-3.5-3.5c0-.35.07-.68.16-1h-8.26c.1.32.16.65.16,1,0,1.93-1.57,3.5-3.5,3.5s-3.5-1.57-3.5-3.5c0-.35.07-.68.16-1h-8.26c.1.32.16.65.16,1,0,1.93-1.57,3.5-3.51,3.5s-3.49-1.57-3.49-3.5c0-.35.07-.68.16-1h-8.27c.1.32.16.65.16,1,0,1.93-1.57,3.5-3.5,3.5s-3.5-1.57-3.5-3.5c0-.35.07-.68.16-1h-8.26c.1.32.16.65.16,1,0,1.93-1.57,3.5-3.5,3.5s-3.5-1.57-3.5-3.5c0-.35.07-.68.16-1h-8.27c.1.32.16.65.16,1,0,1.93-1.57,3.5-3.5,3.5s-3.5-1.57-3.5-3.5c0-.35.07-.68.16-1h-8.26c.1.32.16.65.16,1,0,1.93-1.57,3.5-3.5,3.5s-3.5-1.57-3.5-3.5c0-.35.07-.68.16-1h-8.27c.1.32.16.65.16,1,0,1.93-1.56,3.5-3.5,3.5s-3.5-1.57-3.5-3.5c0-.35.07-.68.16-1h-8.26c.1.32.16.65.16,1,0,1.93-1.57,3.5-3.5,3.5s-3.5-1.57-3.5-3.5c0-.35.07-.68.16-1h-8.26c.1.33.17.66.17,1,0,.92-.38,1.82-1.03,2.47-.41.41-.92.7-1.47.86v758.19c.92,0,1.83.35,2.47,1,.65.65,1.02,1.56,1.02,2.48,0,.27-.04.54-.11.81h8.15c-.06-.26-.1-.53-.1-.81,0-1.93,1.57-3.5,3.5-3.5s3.5,1.57,3.5,3.5c0,.28-.04.55-.1.81h8.14c-.06-.26-.1-.53-.1-.81,0-1.93,1.57-3.5,3.5-3.5s3.5,1.57,3.5,3.5c0,.28-.04.55-.1.81h8.14c-.06-.26-.1-.53-.1-.81,0-1.93,1.56-3.5,3.5-3.5s3.5,1.57,3.5,3.5c0,.28-.04.55-.1.81h8.14c-.06-.26-.1-.53-.1-.81,0-1.93,1.57-3.5,3.5-3.5s3.5,1.57,3.5,3.5c0,.28-.04.55-.1.81h8.14c-.06-.26-.1-.53-.1-.81,0-1.93,1.56-3.5,3.5-3.5s3.5,1.57,3.5,3.5c0,.28-.04.55-.1.81h8.14c-.06-.26-.1-.53-.1-.81,0-1.93,1.57-3.5,3.5-3.5s3.5,1.57,3.5,3.5c0,.28-.04.55-.1.81h8.14c-.06-.26-.1-.53-.1-.81,0-1.93,1.57-3.5,3.5-3.5s3.51,1.57,3.51,3.5c0,.28-.04.55-.1.81h8.14c-.06-.26-.1-.53-.1-.81,0-1.93,1.57-3.5,3.5-3.5s3.5,1.57,3.5,3.5c0,.28-.04.55-.1.81h8.14c-.06-.26-.1-.53-.1-.81,0-1.93,1.57-3.5,3.5-3.5s3.5,1.57,3.5,3.5c0,.28-.04.55-.1.81h8.14c-.06-.26-.1-.53-.1-.81,0-1.93,1.56-3.5,3.5-3.5s3.5,1.57,3.5,3.5c0,.28-.04.55-.1.81h8.14c-.06-.26-.1-.53-.1-.81,0-1.93,1.57-3.5,3.5-3.5s3.5,1.57,3.5,3.5c0,.28-.04.55-.1.81h8.15c-.06-.26-.1-.53-.1-.81,0-1.93,1.56-3.5,3.5-3.5s3.5,1.57,3.5,3.5c0,.28-.04.55-.1.81h8.14c-.06-.26-.1-.53-.1-.81,0-1.93,1.57-3.5,3.5-3.5s3.5,1.57,3.5,3.5c0,.28-.04.55-.1.81h8.14c-.06-.26-.1-.53-.1-.81,0-1.93,1.57-3.5,3.5-3.5s3.51,1.57,3.51,3.5c0,.28-.04.55-.1.81h8.14c-.06-.26-.1-.53-.1-.81,0-1.93,1.57-3.5,3.5-3.5s3.5,1.57,3.5,3.5c0,.28-.04.55-.1.81h8.14c-.06-.26-.1-.53-.1-.81,0-1.93,1.57-3.5,3.5-3.5s3.5,1.57,3.5,3.5c0,.28-.04.55-.1.81h8.14c-.06-.26-.1-.53-.1-.81,0-1.93,1.56-3.5,3.5-3.5s3.5,1.57,3.5,3.5c0,.28-.04.55-.1.81h8.14c-.06-.26-.1-.53-.1-.81,0-1.93,1.57-3.5,3.5-3.5s3.5,1.57,3.5,3.5c0,.28-.04.55-.1.81h8.15c-.06-.26-.1-.53-.1-.81,0-1.93,1.56-3.5,3.5-3.5s3.5,1.57,3.5,3.5c0,.28-.04.55-.1.81h8.14c-.06-.26-.1-.53-.1-.81,0-1.93,1.57-3.5,3.5-3.5s3.5,1.57,3.5,3.5c0,.28-.04.55-.1.81h8.14c-.06-.26-.1-.53-.1-.81,0-1.93,1.57-3.5,3.5-3.5s3.5,1.57,3.5,3.5c0,.28-.04.55-.1.81h8.15c-.06-.26-.1-.53-.1-.81,0-1.93,1.57-3.5,3.5-3.5s3.5,1.57,3.5,3.5c0,.28-.04.55-.1.81h8.14c-.06-.26-.1-.53-.1-.81,0-1.93,1.57-3.5,3.5-3.5s3.5,1.57,3.5,3.5c0,.28-.04.55-.1.81h8.15c-.06-.26-.1-.53-.1-.81,0-1.93,1.56-3.5,3.5-3.5s3.5,1.57,3.5,3.5c0,.28-.04.55-.1.81h8.14c-.06-.26-.1-.53-.1-.81,0-1.93,1.57-3.5,3.5-3.5s3.5,1.57,3.5,3.5c0,.28-.04.55-.1.81h8.15c-.06-.26-.1-.53-.1-.81,0-1.93,1.56-3.5,3.5-3.5s3.5,1.57,3.5,3.5c0,.28-.04.55-.1.81h8.14c-.06-.26-.1-.53-.1-.81,0-1.93,1.57-3.5,3.5-3.5s3.5,1.57,3.5,3.5c0,.28-.04.55-.1.81h8.14c-.06-.26-.1-.53-.1-.81,0-1.93,1.57-3.5,3.5-3.5s3.5,1.57,3.5,3.5c0,.28-.04.55-.1.81h8.15c-.06-.26-.1-.53-.1-.81,0-1.93,1.57-3.5,3.5-3.5s3.5,1.57,3.5,3.5c0,.28-.04.55-.1.81h8.14c-.06-.26-.1-.53-.1-.81,0-1.93,1.57-3.5,3.5-3.5s3.5,1.57,3.5,3.5c0,.28-.04.55-.1.81h8.15c-.06-.26-.1-.53-.1-.81,0-1.93,1.56-3.5,3.5-3.5s3.5,1.57,3.5,3.5c0,.28-.04.55-.1.81h8.14c-.06-.26-.1-.53-.1-.81,0-1.93,1.57-3.5,3.5-3.5s3.5,1.57,3.5,3.5c0,.28-.04.55-.1.81h8.15c-.06-.26-.11-.53-.11-.81,0-.92.37-1.83,1.02-2.48.16-.16.34-.3.53-.43s.4-.24.61-.32c.21-.09.43-.16.65-.2.23-.05.46-.07.69-.07V4.33c-.11.03-.21.08-.32.1h.04Z"
            fill="#fff" />
        <path d="M250.93,67.97v-13.16h9.86v1.52h-7.73v4.53h6.6v1.52h-6.6v5.59h-2.13,0Z"
            fill="#30302f" />
        <path d="M263.45,67.97v-1.52h3.73v-10.12h-3.73v-1.52h9.58v1.52h-3.73v10.12h3.73v1.52h-9.58Z"
            fill="#30302f" />
        <path
            d="M276.9,67.97v-13.16h3.88c1.61,0,2.73.13,3.36.38,1.34.53,2.01,1.46,2.01,2.79,0,.92-.23,1.68-.7,2.29s-1.24,1.18-2.33,1.71l4.78,5.99h-2.58l-4.37-5.48h-1.92v5.48h-2.13ZM279.03,60.97h1.12c1.14,0,2.05-.24,2.72-.72s1-1.13,1-1.94c0-.76-.25-1.28-.76-1.56-.5-.28-1.43-.42-2.79-.42h-1.31v4.65h.02Z"
            fill="#30302f" />
        <path
            d="M289.25,67.97v-13.16h2.56l3.04,8.1h.02l2.99-8.1h2.67v13.16h-1.74v-11.29h-.02l-3.12,8.51h-1.79l-3.11-8.27h-.02v11.05h-1.48Z"
            fill="#30302f" />
        <path
            d="M301.69,67.97l5.46-13.16h2.13l5.46,13.16h-2.25l-1.31-3.29h-6.33l-1.33,3.29h-1.83ZM305.5,63.16h5.06l-2.54-6.29-2.52,6.29Z"
            fill="#30302f" />
        <path
            d="M208.28,93.55c-1.66,0-2.99-.72-3.98-2.16s-1.48-3.38-1.48-5.81.49-4.36,1.48-5.8,2.32-2.16,3.98-2.16,2.99.72,3.98,2.16c.99,1.44,1.48,3.37,1.48,5.8s-.5,4.37-1.48,5.81c-.99,1.44-2.32,2.16-3.98,2.16ZM208.28,92.03c2.13,0,3.2-2.15,3.2-6.46s-1.07-6.44-3.2-6.44-3.2,2.15-3.2,6.44,1.07,6.46,3.2,6.46Z"
            fill="#30302f" />
        <path
            d="M221.6,93.55c-1.66,0-2.99-.72-3.98-2.16s-1.48-3.38-1.48-5.81.49-4.36,1.48-5.8,2.32-2.16,3.98-2.16,2.99.72,3.98,2.16c.99,1.44,1.48,3.37,1.48,5.8s-.5,4.37-1.48,5.81c-.99,1.44-2.32,2.16-3.98,2.16ZM221.6,92.03c2.13,0,3.2-2.15,3.2-6.46s-1.07-6.44-3.2-6.44-3.2,2.15-3.2,6.44,1.07,6.46,3.2,6.46Z"
            fill="#30302f" />
        <path d="M230.53,87.6v-1.52h8.79v1.52h-8.79Z" fill="#30302f" />
        <path
            d="M248.26,93.55c-1.66,0-2.99-.72-3.98-2.16s-1.48-3.38-1.48-5.81.49-4.36,1.48-5.8,2.32-2.16,3.98-2.16,2.99.72,3.98,2.16c.99,1.44,1.48,3.37,1.48,5.8s-.5,4.37-1.48,5.81c-.99,1.44-2.32,2.16-3.98,2.16ZM248.26,92.03c2.13,0,3.2-2.15,3.2-6.46s-1.07-6.44-3.2-6.44-3.2,2.15-3.2,6.44,1.07,6.46,3.2,6.46Z"
            fill="#30302f" />
        <path
            d="M261.58,93.55c-1.66,0-2.99-.72-3.98-2.16s-1.48-3.38-1.48-5.81.49-4.36,1.48-5.8,2.32-2.16,3.98-2.16,2.99.72,3.98,2.16c.99,1.44,1.48,3.37,1.48,5.8s-.5,4.37-1.48,5.81c-.99,1.44-2.32,2.16-3.98,2.16ZM261.58,92.03c2.13,0,3.2-2.15,3.2-6.46s-1.07-6.44-3.2-6.44-3.2,2.15-3.2,6.44,1.07,6.46,3.2,6.46Z"
            fill="#30302f" />
        <path
            d="M282.59,93.17v-13.16h2.56l3.04,8.1h.02l2.99-8.1h2.67v13.16h-1.74v-11.29h-.02l-3.12,8.51h-1.79l-3.11-8.27h-.02v11.05h-1.48Z"
            fill="#30302f" />
        <path d="M296.77,93.17v-1.52h3.73v-10.12h-3.73v-1.52h9.58v1.52h-3.73v10.12h3.73v1.52h-9.58Z"
            fill="#30302f" />
        <path
            d="M308.36,93.17l5.46-13.16h2.13l5.46,13.16h-2.25l-1.31-3.29h-6.33l-1.33,3.29h-1.83ZM312.16,88.36h5.06l-2.54-6.29-2.52,6.29Z"
            fill="#30302f" />
        <path
            d="M332.46,80.32v1.75c-1.56-.57-2.95-.86-4.17-.86-1.92,0-2.88.62-2.88,1.85,0,.5.18.9.54,1.21s1.03.62,2,.94l1.36.45,1.3.42c2.01.67,3.01,1.8,3.01,3.4,0,1.22-.51,2.19-1.54,2.92-1.03.73-2.4,1.09-4.12,1.09-1.2,0-2.74-.24-4.63-.73v-2c1.89.81,3.45,1.21,4.7,1.21,1.05,0,1.89-.2,2.52-.59s.94-.92.94-1.58c0-.51-.19-.91-.56-1.2-.37-.29-1.14-.64-2.29-1.05l-1.43-.49c-1.42-.5-2.4-1.01-2.95-1.54s-.83-1.23-.83-2.1c0-1.18.42-2.1,1.27-2.75.85-.65,2.04-.97,3.57-.97,1.25,0,2.65.21,4.2.63h0Z"
            fill="#30302f" />
        <path d="M340.48,93.17v-11.64h-5.33v-1.52h12.79v1.52h-5.33v11.64h-2.13Z" fill="#30302f" />
        <path
            d="M348.88,86.58c0-2.1.54-3.77,1.63-5.02,1.08-1.25,2.54-1.87,4.37-1.87s3.29.62,4.37,1.87,1.63,2.92,1.63,5.02-.54,3.78-1.63,5.03c-1.08,1.25-2.54,1.87-4.37,1.87s-3.29-.62-4.37-1.87-1.63-2.92-1.63-5.03ZM351.15,86.58c0,1.72.32,3.05.97,3.98.64.93,1.56,1.4,2.76,1.4s2.12-.47,2.76-1.4c.65-.93.97-2.26.97-3.98s-.32-3.04-.97-3.97-1.57-1.4-2.76-1.4-2.11.47-2.76,1.4c-.64.93-.97,2.26-.97,3.97Z"
            fill="#30302f" />
        <path
            d="M196.6,105.21h2.13v7.99c0,1.39.23,2.4.7,3.03.46.62,1.21.94,2.25.94s1.88-.31,2.37-.94c.48-.63.72-1.65.72-3.08v-7.94h1.86v7.64c0,1.65-.21,2.83-.62,3.55-.87,1.52-2.31,2.29-4.31,2.29-1.74,0-3.02-.45-3.85-1.35s-1.25-2.29-1.25-4.16v-7.96h0Z"
            fill="#30302f" />
        <path d="M210.68,118.37v-13.16h2.13v11.64h7.46v1.52h-9.59Z" fill="#30302f" />
        <path d="M226.67,118.37v-3.04h3.2v3.04h-3.2Z" fill="#30302f" />
        <path
            d="M249.27,118.37v-13.16h2.56l3.04,8.1h.02l2.99-8.1h2.67v13.16h-1.74v-11.29h-.02l-3.12,8.51h-1.79l-3.11-8.27h-.02v11.05h-1.48Z"
            fill="#30302f" />
        <path
            d="M263.45,118.37v-1.52h3.73v-10.12h-3.73v-1.52h9.58v1.52h-3.73v10.12h3.73v1.52h-9.58Z"
            fill="#30302f" />
        <path d="M277.24,118.37v-13.16h9.36v1.52h-7.24v3.99h6.13v1.52h-6.13v4.61h7.73v1.52h-9.86,0Z"
            fill="#30302f" />
        <path
            d="M290.37,118.19v-1.71l.71.23c.99.31,1.77.46,2.34.46,1.02,0,1.73-.25,2.13-.75.41-.5.61-1.38.61-2.65v-7.04h-4.79v-1.52h6.92v7.49c0,1.33-.08,2.32-.25,2.97s-.48,1.22-.95,1.71c-.82.87-1.99,1.3-3.52,1.3-.83,0-1.9-.16-3.21-.49h.01Z"
            fill="#30302f" />
        <path
            d="M312.47,105.52v1.75c-1.56-.57-2.95-.86-4.17-.86-1.92,0-2.88.62-2.88,1.85,0,.5.18.9.54,1.21s1.03.62,2,.94l1.36.45,1.3.42c2.01.67,3.01,1.8,3.01,3.4,0,1.22-.51,2.19-1.54,2.92-1.03.73-2.4,1.09-4.12,1.09-1.2,0-2.74-.24-4.63-.73v-2c1.89.81,3.45,1.21,4.7,1.21,1.05,0,1.89-.2,2.52-.59s.94-.92.94-1.58c0-.51-.19-.91-.56-1.2-.37-.29-1.14-.64-2.29-1.05l-1.43-.49c-1.42-.5-2.4-1.01-2.95-1.54s-.83-1.23-.83-2.1c0-1.18.42-2.1,1.27-2.75.85-.65,2.04-.97,3.57-.97,1.25,0,2.65.21,4.2.63h0Z"
            fill="#30302f" />
        <path
            d="M316.73,118.37v-13.16h2.13v6.45l5.8-6.45h2.15l-5.59,6.2,6.66,6.95h-2.56l-6.46-6.71v6.71h-2.13Z"
            fill="#30302f" />
        <path
            d="M328.35,118.37l5.46-13.16h2.13l5.46,13.16h-2.25l-1.31-3.29h-6.33l-1.33,3.29h-1.83ZM332.15,113.56h5.06l-2.54-6.29-2.52,6.29Z"
            fill="#30302f" />
        <path d="M356.87,118.37v-1.52h4.27v-11.8l-4.27.91v-1.25l6.39-1.9v14.04h4.27v1.52h-10.66Z"
            fill="#30302f" />
        <path
            d="M169.9,143.57v-13.2h2.02l6.35,9.56h.02v-9.56h1.74v13.2h-1.96l-6.39-9.65h-.03v9.65h-1.75Z"
            fill="#30302f" />
        <path
            d="M183.49,143.57v-1.52h3.73v-10.12h-3.73v-1.52h9.58v1.52h-3.73v10.12h3.73v1.52h-9.58Z"
            fill="#30302f" />
        <path
            d="M197.41,143.57v-13.16h4.51c1.61,0,2.75.14,3.44.41,1.4.57,2.1,1.68,2.1,3.32,0,1.38-.56,2.46-1.69,3.25s-2.68,1.18-4.67,1.18h-1.56v4.99h-2.13ZM199.54,137.06h1.33c2.88,0,4.32-.96,4.32-2.87,0-.81-.27-1.38-.82-1.73-.54-.35-1.45-.52-2.72-.52h-2.12v5.13h0Z"
            fill="#30302f" />
        <path
            d="M221.72,143.57l5.42-6.68-4.95-6.48h2.52l3.73,4.88,3.97-4.88h2.07l-5.05,6.19,5.33,6.97h-2.52l-4.1-5.36-4.35,5.36h-2.07,0Z"
            fill="#30302f" />
        <path
            d="M235.05,143.57l5.42-6.68-4.95-6.48h2.52l3.73,4.88,3.97-4.88h2.07l-5.05,6.19,5.33,6.97h-2.52l-4.1-5.36-4.35,5.36h-2.07,0Z"
            fill="#30302f" />
        <path
            d="M248.38,143.57l5.42-6.68-4.95-6.48h2.52l3.73,4.88,3.97-4.88h2.07l-5.05,6.19,5.33,6.97h-2.52l-4.1-5.36-4.35,5.36h-2.07Z"
            fill="#30302f" />
        <path d="M263.85,138v-1.52h8.79v1.52h-8.79Z" fill="#30302f" />
        <path
            d="M275.03,143.57l5.42-6.68-4.95-6.48h2.52l3.73,4.88,3.97-4.88h2.07l-5.05,6.19,5.33,6.97h-2.52l-4.1-5.36-4.35,5.36h-2.07Z"
            fill="#30302f" />
        <path
            d="M288.36,143.57l5.42-6.68-4.95-6.48h2.52l3.73,4.88,3.97-4.88h2.07l-5.05,6.19,5.33,6.97h-2.52l-4.1-5.36-4.35,5.36h-2.07Z"
            fill="#30302f" />
        <path
            d="M301.68,143.57l5.42-6.68-4.95-6.48h2.52l3.73,4.88,3.97-4.88h2.07l-5.05,6.19,5.33,6.97h-2.52l-4.1-5.36-4.35,5.36h-2.07Z"
            fill="#30302f" />
        <path d="M317.16,138v-1.52h8.79v1.52h-8.79Z" fill="#30302f" />
        <path
            d="M328.34,143.57l5.42-6.68-4.95-6.48h2.52l3.73,4.88,3.97-4.88h2.07l-5.05,6.19,5.33,6.97h-2.52l-4.1-5.36-4.35,5.36h-2.07Z"
            fill="#30302f" />
        <path
            d="M341.66,143.57l5.42-6.68-4.95-6.48h2.52l3.73,4.88,3.97-4.88h2.07l-5.05,6.19,5.33,6.97h-2.52l-4.1-5.36-4.35,5.36h-2.07Z"
            fill="#30302f" />
        <path d="M357.14,138v-1.52h8.79v1.52h-8.79Z" fill="#30302f" />
        <path
            d="M368.32,143.57l5.42-6.68-4.95-6.48h2.52l3.73,4.88,3.97-4.88h2.07l-5.05,6.19,5.33,6.97h-2.52l-4.1-5.36-4.35,5.36h-2.07Z"
            fill="#30302f" />
        <path
            d="M381.64,143.57l5.42-6.68-4.95-6.48h2.52l3.73,4.88,3.97-4.88h2.07l-5.05,6.19,5.33,6.97h-2.52l-4.1-5.36-4.35,5.36h-2.07Z"
            fill="#30302f" />
        <path
            d="M98.5,190.2v-1.77c.83-1.61,2.08-3.24,3.73-4.88l.91-.91c1.26-1.25,1.89-2.51,1.89-3.78,0-.81-.24-1.46-.72-1.95-.48-.49-1.13-.73-1.93-.73-.98,0-2.14.36-3.5,1.07v-1.78c1.26-.53,2.49-.8,3.69-.8,1.39,0,2.5.38,3.35,1.13.84.76,1.27,1.75,1.27,2.99,0,.8-.19,1.55-.58,2.26s-1.05,1.49-1.98,2.36l-.86.81c-1.59,1.48-2.54,2.89-2.86,4.23h6.2v1.77h-8.6v-.02Z"
            fill="#343434" />
        <path
            d="M115.76,190.58c-1.58,0-2.84-.72-3.78-2.16s-1.41-3.38-1.41-5.81.47-4.36,1.41-5.8,2.2-2.16,3.78-2.16,2.84.72,3.78,2.16,1.41,3.37,1.41,5.8-.47,4.37-1.41,5.81-2.2,2.16-3.78,2.16ZM115.76,189.06c2.02,0,3.04-2.15,3.04-6.46s-1.01-6.44-3.04-6.44-3.04,2.15-3.04,6.44,1.01,6.46,3.04,6.46Z"
            fill="#343434" />
        <path
            d="M123.81,190.2v-1.77c.83-1.61,2.08-3.24,3.73-4.88l.91-.91c1.26-1.25,1.89-2.51,1.89-3.78,0-.81-.24-1.46-.72-1.95-.48-.49-1.13-.73-1.93-.73-.98,0-2.14.36-3.5,1.07v-1.78c1.26-.53,2.49-.8,3.69-.8,1.39,0,2.5.38,3.35,1.13.84.76,1.27,1.75,1.27,2.99,0,.8-.19,1.55-.58,2.26s-1.05,1.49-1.98,2.36l-.86.81c-1.59,1.48-2.54,2.89-2.86,4.23h6.2v1.77h-8.6v-.02Z"
            fill="#343434" />
        <path
            d="M137.51,190.12v-1.73c1.16.45,2.08.68,2.78.68.83,0,1.52-.32,2.06-.97s.8-1.47.8-2.48c0-2.26-1.48-3.39-4.45-3.39-.25,0-.55,0-.9.04v-7.24h7.12v1.76h-5.41v3.94c1.79,0,3.21.45,4.25,1.35s1.56,2.13,1.56,3.68c0,1.38-.47,2.53-1.42,3.45s-2.13,1.37-3.55,1.37c-.8,0-1.74-.15-2.83-.46h0Z"
            fill="#343434" />
        <path d="M149.55,184.63v-1.52h8.35v1.52h-8.35Z" fill="#343434" />
        <path d="M161.94,190.2v-1.52h4.05v-11.8l-4.05.91v-1.25l6.07-1.9v14.04h4.05v1.52h-10.12Z"
            fill="#343434" />
        <path
            d="M183.38,175.22v1.73c-1.21-.53-2.17-.79-2.89-.79-1.28,0-2.27.55-2.96,1.64s-1.05,2.64-1.05,4.65c.9-1.3,2.05-1.95,3.47-1.95,1.19,0,2.2.46,3.02,1.38s1.24,2.04,1.24,3.36c0,1.55-.45,2.83-1.34,3.83s-2.04,1.51-3.42,1.51c-1.65,0-2.91-.66-3.78-1.97s-1.31-3.21-1.31-5.7.54-4.51,1.62-6.02,2.52-2.25,4.32-2.25c.83,0,1.86.19,3.09.57h-.01ZM179.69,189.06c.75,0,1.37-.32,1.84-.95.47-.63.71-1.46.71-2.47,0-1.1-.25-1.99-.76-2.67s-1.18-1.02-2-1.02-1.5.3-1.99.89c-.5.59-.74,1.39-.74,2.38,0,1.17.27,2.11.8,2.8s1.25,1.04,2.15,1.04h0Z"
            fill="#343434" />
        <path d="M187.51,184.63v-1.52h8.35v1.52h-8.35Z" fill="#343434" />
        <path
            d="M204.33,190.58c-1.58,0-2.84-.72-3.78-2.16s-1.41-3.38-1.41-5.81.47-4.36,1.41-5.8,2.2-2.16,3.78-2.16,2.84.72,3.78,2.16,1.41,3.37,1.41,5.8-.47,4.37-1.41,5.81-2.2,2.16-3.78,2.16ZM204.33,189.06c2.02,0,3.04-2.15,3.04-6.46s-1.01-6.44-3.04-6.44-3.04,2.15-3.04,6.44,1.01,6.46,3.04,6.46Z"
            fill="#343434" />
        <path
            d="M213.02,190.05v-1.73c1.27.5,2.24.75,2.91.75,1.26,0,2.25-.55,2.94-1.65.7-1.1,1.05-2.64,1.05-4.64-.9,1.3-2.05,1.95-3.48,1.95-1.19,0-2.2-.46-3.02-1.38s-1.24-2.04-1.24-3.36c0-1.55.45-2.83,1.34-3.83s2.04-1.51,3.42-1.51c1.65,0,2.91.65,3.77,1.96.87,1.31,1.3,3.21,1.3,5.7s-.54,4.52-1.61,6.02c-1.08,1.5-2.51,2.26-4.29,2.26-.8,0-1.84-.18-3.11-.53h.02ZM216.71,176.16c-.75,0-1.37.32-1.85.95s-.72,1.46-.72,2.46c0,1.11.26,2,.77,2.68s1.18,1.02,2.01,1.02,1.49-.3,1.99-.89.75-1.39.75-2.38c0-1.17-.27-2.1-.8-2.79-.54-.69-1.25-1.04-2.15-1.04h0Z"
            fill="#343434" />
        <path
            d="M398.77,190.58l5.14-6.68-4.7-6.48h2.39l3.54,4.88,3.77-4.88h1.97l-4.79,6.19,5.06,6.97h-2.4l-3.89-5.36-4.13,5.36h-1.97.01Z"
            fill="#343434" />
        <path
            d="M411.42,190.58l5.14-6.68-4.7-6.48h2.39l3.54,4.88,3.77-4.88h1.97l-4.79,6.19,5.06,6.97h-2.4l-3.89-5.36-4.13,5.36h-1.97.01Z"
            fill="#343434" />
        <path
            d="M424.08,190.58l5.14-6.68-4.7-6.48h2.39l3.54,4.88,3.77-4.88h1.97l-4.79,6.19,5.06,6.97h-2.4l-3.89-5.36-4.13,5.36h-1.97.01Z"
            fill="#343434" />
        <path
            d="M436.73,190.58l5.14-6.68-4.7-6.48h2.39l3.54,4.88,3.77-4.88h1.97l-4.79,6.19,5.06,6.97h-2.4l-3.89-5.36-4.13,5.36h-1.97.01Z"
            fill="#343434" />
        <path
            d="M449.38,190.58l5.14-6.68-4.7-6.48h2.39l3.54,4.88,3.77-4.88h1.97l-4.79,6.19,5.06,6.97h-2.4l-3.89-5.36-4.13,5.36h-1.97.01Z"
            fill="#343434" />
        <path
            d="M143.66,239.64v-17.54h5.71c2.03,0,3.49.18,4.35.55,1.77.77,2.66,2.24,2.66,4.43,0,1.84-.71,3.29-2.14,4.33-1.43,1.05-3.4,1.57-5.91,1.57h-1.97v6.66h-2.7ZM146.35,230.96h1.68c3.65,0,5.47-1.28,5.47-3.83,0-1.08-.34-1.85-1.03-2.31-.69-.46-1.83-.7-3.44-.7h-2.68v6.84Z"
            fill="#343434" stroke="#343434" stroke-miterlimit="10" />
        <path
            d="M157.58,239.64l6.92-17.54h2.69l6.92,17.54h-2.85l-1.66-4.39h-8.02l-1.68,4.39h-2.32,0ZM162.39,233.23h6.4l-3.22-8.38-3.19,8.38h.01Z"
            fill="#343434" stroke="#343434" stroke-miterlimit="10" />
        <path
            d="M176.8,239.64v-17.54h4.91c2.04,0,3.46.17,4.25.51,1.7.7,2.54,1.94,2.54,3.72,0,1.22-.29,2.24-.88,3.06-.59.82-1.57,1.57-2.95,2.28l6.06,7.98h-3.26l-5.54-7.3h-2.43v7.3h-2.7ZM179.49,230.31h1.42c1.45,0,2.6-.32,3.45-.96s1.27-1.5,1.27-2.59c0-1.01-.32-1.71-.96-2.08s-1.81-.56-3.53-.56h-1.65v6.19Z"
            fill="#343434" stroke="#343434" stroke-miterlimit="10" />
        <path
            d="M191.32,239.64l6.92-17.54h2.69l6.92,17.54h-2.85l-1.66-4.39h-8.02l-1.68,4.39h-2.32,0ZM196.13,233.23h6.4l-3.22-8.38-3.19,8.38h.01Z"
            fill="#343434" stroke="#343434" stroke-miterlimit="10" />
        <path
            d="M223.24,222.47v2.47c-1.8-.83-3.49-1.24-5.06-1.24-1.81,0-3.31.67-4.48,2s-1.76,3.03-1.76,5.09.66,3.77,1.98,5.09c1.32,1.33,3.01,1.99,5.06,1.99.46,0,1.06-.05,1.78-.16v-4.63h-3.29v-2.02h5.99v8.15c-1.83.58-3.57.88-5.21.88-2.72,0-4.92-.84-6.62-2.53s-2.55-3.88-2.55-6.58.85-5,2.54-6.71c1.7-1.71,3.91-2.57,6.64-2.57,1.55,0,3.21.26,4.98.79v-.02Z"
            fill="#343434" stroke="#343434" stroke-miterlimit="10" />
        <path
            d="M225.74,230.86c0-2.8.69-5.03,2.06-6.69s3.22-2.5,5.54-2.5,4.16.83,5.54,2.5c1.37,1.66,2.06,3.89,2.06,6.69s-.69,5.04-2.06,6.71c-1.37,1.66-3.22,2.5-5.54,2.5s-4.16-.83-5.54-2.5c-1.37-1.66-2.06-3.9-2.06-6.71ZM228.62,230.86c0,2.3.41,4.07,1.22,5.31.82,1.24,1.98,1.87,3.49,1.87s2.68-.62,3.5-1.87,1.23-3.01,1.23-5.31-.41-4.05-1.23-5.3-1.99-1.87-3.5-1.87-2.68.62-3.49,1.87c-.82,1.24-1.22,3.01-1.22,5.3Z"
            fill="#343434" stroke="#343434" stroke-miterlimit="10" />
        <path
            d="M243.79,239.64v-17.6h2.56l8.04,12.75h.03v-12.75h2.2v17.6h-2.49l-8.09-12.86h-.04v12.86h-2.21Z"
            fill="#343434" stroke="#343434" stroke-miterlimit="10" />
        <path d="M278.89,239.64v-17.54h12.48v2.02h-9.79v6.04h8.35v2.02h-8.35v7.45h-2.69Z"
            fill="#343434" stroke="#343434" stroke-miterlimit="10" />
        <path
            d="M294.75,239.64v-2.02h4.72v-13.49h-4.72v-2.02h12.13v2.02h-4.72v13.49h4.72v2.02h-12.13Z"
            fill="#343434" stroke="#343434" stroke-miterlimit="10" />
        <path
            d="M323.06,222.51v2.34c-1.98-.77-3.74-1.15-5.28-1.15-2.43,0-3.65.82-3.65,2.46,0,.67.23,1.2.68,1.61.46.41,1.3.82,2.53,1.25l1.72.6,1.64.56c2.54.89,3.81,2.41,3.81,4.54,0,1.62-.65,2.92-1.95,3.89s-3.04,1.46-5.22,1.46c-1.51,0-3.47-.32-5.87-.97v-2.67c2.39,1.08,4.37,1.61,5.95,1.61,1.33,0,2.39-.26,3.19-.79.79-.52,1.19-1.23,1.19-2.11,0-.67-.23-1.21-.7-1.6s-1.44-.86-2.91-1.39l-1.8-.66c-1.8-.67-3.04-1.35-3.74-2.05-.7-.7-1.05-1.64-1.05-2.8,0-1.58.54-2.8,1.61-3.66,1.07-.87,2.58-1.3,4.52-1.3,1.58,0,3.35.28,5.32.83h0Z"
            fill="#343434" stroke="#343434" stroke-miterlimit="10" />
        <path
            d="M328.45,239.64v-17.54h2.69v8.6l7.34-8.6h2.72l-7.08,8.27,8.44,9.27h-3.23l-8.18-8.94v8.94h-2.7Z"
            fill="#343434" stroke="#343434" stroke-miterlimit="10" />
        <path
            d="M343.16,239.64l6.92-17.54h2.69l6.92,17.54h-2.85l-1.66-4.39h-8.02l-1.68,4.39h-2.32ZM347.97,233.23h6.4l-3.22-8.38-3.19,8.38h.01Z"
            fill="#343434" stroke="#343434" stroke-miterlimit="10" />
        <path d="M362.9,239.64v-17.54h2.69v15.52h9.45v2.02h-12.14Z" fill="#343434" stroke="#343434"
            stroke-miterlimit="10" />
        <path
            d="M378.76,239.64v-17.6h2.56l8.04,12.75h.03v-12.75h2.2v17.6h-2.49l-8.09-12.86h-.04v12.86h-2.21Z"
            fill="#343434" stroke="#343434" stroke-miterlimit="10" />
        <path
            d="M400.7,239.64v-7.18l-6.66-10.36h3.1l5.1,8.09,5.58-8.09h2.56l-6.99,10.36v7.18h-2.69Z"
            fill="#343434" stroke="#343434" stroke-miterlimit="10" />
        <path
            d="M99.12,281.49v-13.16h4.28c1.53,0,2.61.14,3.26.41,1.33.57,1.99,1.68,1.99,3.32,0,1.38-.54,2.46-1.61,3.25s-2.55,1.18-4.43,1.18h-1.48v4.99h-2.02.01ZM101.14,274.98h1.26c2.73,0,4.1-.96,4.1-2.87,0-.81-.26-1.38-.77-1.73s-1.38-.52-2.58-.52h-2.01v5.13h0Z"
            fill="#343434" />
        <path
            d="M111.32,281.49v-13.16h3.68c1.53,0,2.59.13,3.19.38,1.27.53,1.91,1.46,1.91,2.79,0,.92-.22,1.68-.66,2.29s-1.18,1.18-2.21,1.71l4.54,5.99h-2.45l-4.15-5.48h-1.83v5.48h-2.02ZM113.34,274.5h1.07c1.09,0,1.95-.24,2.58-.72s.95-1.13.95-1.94c0-.76-.24-1.28-.72-1.56s-1.36-.42-2.65-.42h-1.24v4.65h.01Z"
            fill="#343434" />
        <path
            d="M122.72,274.91c0-2.1.51-3.77,1.54-5.02s2.41-1.87,4.15-1.87,3.12.62,4.15,1.87,1.54,2.92,1.54,5.02-.52,3.78-1.54,5.03c-1.03,1.25-2.41,1.87-4.15,1.87s-3.12-.62-4.15-1.87-1.54-2.92-1.54-5.03ZM124.88,274.91c0,1.72.31,3.05.92,3.98.61.93,1.48,1.4,2.62,1.4s2.01-.47,2.62-1.4c.62-.93.92-2.26.92-3.98s-.31-3.04-.92-3.97c-.62-.93-1.49-1.4-2.62-1.4s-2.01.47-2.62,1.4-.92,2.26-.92,3.97Z"
            fill="#343434" />
        <path
            d="M136.07,281.49v-13.16h3.97c4.38,0,6.56,2.11,6.56,6.32,0,1.95-.48,3.52-1.43,4.73-.59.76-1.33,1.3-2.2,1.62-.87.33-2.03.49-3.48.49h-3.42ZM138.09,279.98h1.02c1.93,0,3.3-.38,4.12-1.15.82-.77,1.23-2.05,1.23-3.86s-.37-3.14-1.11-3.93c-.74-.79-1.97-1.18-3.69-1.18h-1.56v10.12h0Z"
            fill="#343434" />
        <path
            d="M148.96,268.34h2.02v7.99c0,1.39.22,2.4.66,3.03.44.62,1.15.94,2.14.94,1.04,0,1.79-.31,2.25-.94s.69-1.65.69-3.08v-7.94h1.76v7.64c0,1.65-.19,2.83-.58,3.55-.83,1.52-2.19,2.29-4.09,2.29-1.65,0-2.87-.45-3.66-1.35-.79-.9-1.18-2.29-1.18-4.16v-7.96h-.01Z"
            fill="#343434" />
        <path
            d="M161.79,281.49v-13.16h2.02v6.45l5.51-6.45h2.04l-5.31,6.2,6.33,6.95h-2.43l-6.14-6.71v6.71h-2.02Z"
            fill="#343434" />
        <path d="M178.01,281.49v-11.64h-5.06v-1.52h12.14v1.52h-5.07v11.64h-2.02.01Z"
            fill="#343434" />
        <path d="M199.9,281.49v-1.52h4.05v-11.8l-4.05.91v-1.25l6.07-1.9v14.04h4.05v1.52h-10.12Z"
            fill="#343434" />
        <path
            d="M99.12,313.94v-13.16h4.28c1.53,0,2.61.14,3.26.41,1.33.57,1.99,1.68,1.99,3.32,0,1.38-.54,2.46-1.61,3.25s-2.55,1.18-4.43,1.18h-1.48v4.99h-2.02.01ZM101.14,307.43h1.26c2.73,0,4.1-.96,4.1-2.87,0-.81-.26-1.38-.77-1.73s-1.38-.52-2.58-.52h-2.01v5.13h0Z"
            fill="#343434" />
        <path
            d="M111.32,313.94v-13.16h3.68c1.53,0,2.59.13,3.19.38,1.27.53,1.91,1.46,1.91,2.79,0,.92-.22,1.68-.66,2.29s-1.18,1.18-2.21,1.71l4.54,5.99h-2.45l-4.15-5.48h-1.83v5.48h-2.02ZM113.34,306.94h1.07c1.09,0,1.95-.24,2.58-.72s.95-1.13.95-1.94c0-.76-.24-1.28-.72-1.56s-1.36-.42-2.65-.42h-1.24v4.65h.01Z"
            fill="#343434" />
        <path
            d="M122.72,307.35c0-2.1.51-3.77,1.54-5.02s2.41-1.87,4.15-1.87,3.12.62,4.15,1.87,1.54,2.92,1.54,5.02-.52,3.78-1.54,5.03c-1.03,1.25-2.41,1.87-4.15,1.87s-3.12-.62-4.15-1.87-1.54-2.92-1.54-5.03ZM124.88,307.35c0,1.72.31,3.05.92,3.98.61.93,1.48,1.4,2.62,1.4s2.01-.47,2.62-1.4c.62-.93.92-2.26.92-3.98s-.31-3.04-.92-3.97c-.62-.93-1.49-1.4-2.62-1.4s-2.01.47-2.62,1.4-.92,2.26-.92,3.97Z"
            fill="#343434" />
        <path
            d="M136.07,313.94v-13.16h3.97c4.38,0,6.56,2.11,6.56,6.32,0,1.95-.48,3.52-1.43,4.73-.59.76-1.33,1.3-2.2,1.62-.87.33-2.03.49-3.48.49h-3.42ZM138.09,312.42h1.02c1.93,0,3.3-.38,4.12-1.15.82-.77,1.23-2.05,1.23-3.86s-.37-3.14-1.11-3.93c-.74-.79-1.97-1.18-3.69-1.18h-1.56v10.12h0Z"
            fill="#343434" />
        <path
            d="M148.96,300.78h2.02v7.99c0,1.39.22,2.4.66,3.03.44.62,1.15.94,2.14.94,1.04,0,1.79-.31,2.25-.94s.69-1.65.69-3.08v-7.94h1.76v7.64c0,1.65-.19,2.83-.58,3.55-.83,1.52-2.19,2.29-4.09,2.29-1.65,0-2.87-.45-3.66-1.35-.79-.9-1.18-2.29-1.18-4.16v-7.96h-.01Z"
            fill="#343434" />
        <path
            d="M161.79,313.94v-13.16h2.02v6.45l5.51-6.45h2.04l-5.31,6.2,6.33,6.95h-2.43l-6.14-6.71v6.71h-2.02Z"
            fill="#343434" />
        <path d="M178.01,313.94v-11.64h-5.06v-1.52h12.14v1.52h-5.07v11.64h-2.02.01Z"
            fill="#343434" />
        <path
            d="M199.73,313.94v-1.77c.83-1.61,2.08-3.24,3.73-4.88l.91-.91c1.26-1.25,1.89-2.51,1.89-3.78,0-.81-.24-1.46-.72-1.95-.48-.49-1.13-.73-1.93-.73-.98,0-2.14.36-3.5,1.07v-1.78c1.26-.53,2.49-.8,3.69-.8,1.39,0,2.5.38,3.35,1.13.84.76,1.27,1.75,1.27,2.99,0,.8-.19,1.55-.58,2.26s-1.05,1.49-1.98,2.36l-.86.81c-1.59,1.48-2.54,2.89-2.86,4.23h6.2v1.77h-8.6v-.02Z"
            fill="#343434" />
        <path d="M281.85,283.27v-1.52h4.05v-11.8l-4.05.91v-1.25l6.07-1.9v14.04h4.05v1.52h-10.12Z"
            fill="#343434" />
        <path
            d="M292.72,283.27l5.14-6.68-4.7-6.48h2.39l3.54,4.88,3.77-4.88h1.97l-4.79,6.19,5.06,6.97h-2.4l-3.89-5.36-4.13,5.36h-1.97.01Z"
            fill="#343434" />
        <path
            d="M305.38,283.27l5.14-6.68-4.7-6.48h2.39l3.54,4.88,3.77-4.88h1.97l-4.79,6.19,5.06,6.97h-2.4l-3.89-5.36-4.13,5.36h-1.97.01Z"
            fill="#343434" />
        <path
            d="M318.03,283.27l5.14-6.68-4.7-6.48h2.39l3.54,4.88,3.77-4.88h1.97l-4.79,6.19,5.06,6.97h-2.4l-3.89-5.36-4.13,5.36h-1.97.01Z"
            fill="#343434" />
        <path d="M335.38,283.27v-3.04h3.04v3.04h-3.04Z" fill="#343434" />
        <path
            d="M343.34,283.27l5.14-6.68-4.7-6.48h2.39l3.54,4.88,3.77-4.88h1.97l-4.79,6.19,5.06,6.97h-2.4l-3.89-5.36-4.13,5.36h-1.97.01Z"
            fill="#343434" />
        <path
            d="M355.99,283.27l5.14-6.68-4.7-6.48h2.39l3.54,4.88,3.77-4.88h1.97l-4.79,6.19,5.06,6.97h-2.4l-3.89-5.36-4.13,5.36h-1.97.01Z"
            fill="#343434" />
        <path
            d="M381.3,283.27l5.14-6.68-4.7-6.48h2.39l3.54,4.88,3.77-4.88h1.97l-4.79,6.19,5.06,6.97h-2.4l-3.89-5.36-4.13,5.36h-1.97.01Z"
            fill="#343434" />
        <path
            d="M393.95,283.27l5.14-6.68-4.7-6.48h2.39l3.54,4.88,3.77-4.88h1.97l-4.79,6.19,5.06,6.97h-2.4l-3.89-5.36-4.13,5.36h-1.97.01Z"
            fill="#343434" />
        <path d="M411.3,283.27v-3.04h3.04v3.04h-3.04Z" fill="#343434" />
        <path
            d="M419.26,283.27l5.14-6.68-4.7-6.48h2.39l3.54,4.88,3.77-4.88h1.97l-4.79,6.19,5.06,6.97h-2.4l-3.89-5.36-4.13,5.36h-1.97.01Z"
            fill="#343434" />
        <path
            d="M431.91,283.27l5.14-6.68-4.7-6.48h2.39l3.54,4.88,3.77-4.88h1.97l-4.79,6.19,5.06,6.97h-2.4l-3.89-5.36-4.13,5.36h-1.97.01Z"
            fill="#343434" />
        <path
            d="M451.17,283.27v-13.16h4.25c3.08,0,4.61,1.02,4.61,3.06,0,.78-.26,1.45-.79,2.02-.53.56-1.27.97-2.22,1.2,2.44.5,3.66,1.66,3.66,3.48,0,1.04-.36,1.85-1.08,2.44-.47.39-1,.65-1.59.77s-1.55.19-2.87.19h-3.97ZM453.19,275.8h.71c2.72,0,4.08-.76,4.08-2.28,0-.75-.26-1.25-.79-1.51s-1.54-.39-3.06-.39h-.94v4.17h0ZM453.19,281.75h1.83c1.33,0,2.25-.14,2.75-.41s.75-.78.75-1.51c0-.85-.41-1.52-1.24-2.02-.82-.5-1.94-.75-3.36-.75h-.74v4.69h0Z"
            fill="#343434" />
        <path
            d="M281.68,315.71v-1.77c.83-1.61,2.08-3.24,3.73-4.88l.91-.91c1.26-1.25,1.89-2.51,1.89-3.78,0-.81-.24-1.46-.72-1.95-.48-.49-1.13-.73-1.93-.73-.98,0-2.14.36-3.5,1.07v-1.78c1.26-.53,2.49-.8,3.69-.8,1.39,0,2.5.38,3.35,1.13.84.76,1.27,1.75,1.27,2.99,0,.8-.2,1.55-.58,2.26s-1.05,1.49-1.98,2.36l-.86.81c-1.59,1.48-2.54,2.89-2.86,4.23h6.2v1.77h-8.6v-.02Z"
            fill="#343434" />
        <path
            d="M292.72,315.71l5.14-6.68-4.7-6.48h2.39l3.54,4.88,3.77-4.88h1.97l-4.79,6.19,5.06,6.97h-2.4l-3.89-5.36-4.13,5.36h-1.97.01Z"
            fill="#343434" />
        <path
            d="M305.38,315.71l5.14-6.68-4.7-6.48h2.39l3.54,4.88,3.77-4.88h1.97l-4.79,6.19,5.06,6.97h-2.4l-3.89-5.36-4.13,5.36h-1.97.01Z"
            fill="#343434" />
        <path
            d="M318.03,315.71l5.14-6.68-4.7-6.48h2.39l3.54,4.88,3.77-4.88h1.97l-4.79,6.19,5.06,6.97h-2.4l-3.89-5.36-4.13,5.36h-1.97.01Z"
            fill="#343434" />
        <path d="M335.38,315.71v-3.04h3.04v3.04h-3.04Z" fill="#343434" />
        <path
            d="M343.34,315.71l5.14-6.68-4.7-6.48h2.39l3.54,4.88,3.77-4.88h1.97l-4.79,6.19,5.06,6.97h-2.4l-3.89-5.36-4.13,5.36h-1.97.01Z"
            fill="#343434" />
        <path
            d="M355.99,315.71l5.14-6.68-4.7-6.48h2.39l3.54,4.88,3.77-4.88h1.97l-4.79,6.19,5.06,6.97h-2.4l-3.89-5.36-4.13,5.36h-1.97.01Z"
            fill="#343434" />
        <path
            d="M381.3,315.71l5.14-6.68-4.7-6.48h2.39l3.54,4.88,3.77-4.88h1.97l-4.79,6.19,5.06,6.97h-2.4l-3.89-5.36-4.13,5.36h-1.97.01Z"
            fill="#343434" />
        <path
            d="M393.95,315.71l5.14-6.68-4.7-6.48h2.39l3.54,4.88,3.77-4.88h1.97l-4.79,6.19,5.06,6.97h-2.4l-3.89-5.36-4.13,5.36h-1.97.01Z"
            fill="#343434" />
        <path d="M411.3,315.71v-3.04h3.04v3.04h-3.04Z" fill="#343434" />
        <path
            d="M419.26,315.71l5.14-6.68-4.7-6.48h2.39l3.54,4.88,3.77-4.88h1.97l-4.79,6.19,5.06,6.97h-2.4l-3.89-5.36-4.13,5.36h-1.97.01Z"
            fill="#343434" />
        <path
            d="M431.91,315.71l5.14-6.68-4.7-6.48h2.39l3.54,4.88,3.77-4.88h1.97l-4.79,6.19,5.06,6.97h-2.4l-3.89-5.36-4.13,5.36h-1.97.01Z"
            fill="#343434" />
        <path
            d="M451.17,315.71v-13.16h4.25c3.08,0,4.61,1.02,4.61,3.06,0,.78-.26,1.45-.79,2.02-.53.56-1.27.97-2.22,1.2,2.44.5,3.66,1.66,3.66,3.48,0,1.04-.36,1.85-1.08,2.44-.47.39-1,.65-1.59.77s-1.55.19-2.87.19h-3.97ZM453.19,308.25h.71c2.72,0,4.08-.76,4.08-2.28,0-.75-.26-1.25-.79-1.51s-1.54-.39-3.06-.39h-.94v4.17h0ZM453.19,314.19h1.83c1.33,0,2.25-.14,2.75-.41s.75-.78.75-1.51c0-.85-.41-1.52-1.24-2.02-.82-.5-1.94-.75-3.36-.75h-.74v4.69h0Z"
            fill="#343434" />
        <line x1="92.85" y1="345.09" x2="97.85" y2="345.09" fill="none" stroke="#343434"
            stroke-miterlimit="10" stroke-width="2" />
        <line x1="99.86" y1="345.09" x2="459.83" y2="345.09" fill="none" stroke="#343434"
            stroke-dasharray="10.03 2.01" stroke-miterlimit="10" stroke-width="2" />
        <line x1="460.83" y1="345.09" x2="465.83" y2="345.09" fill="none" stroke="#343434"
            stroke-miterlimit="10" stroke-width="2" />
        <path
            d="M107.14,384.2v1.75c-1.48-.57-2.8-.86-3.96-.86-1.83,0-2.74.62-2.74,1.85,0,.5.17.9.51,1.21.34.3.97.62,1.9.94l1.29.45,1.23.42c1.91.67,2.86,1.8,2.86,3.4,0,1.22-.49,2.19-1.46,2.92s-2.28,1.09-3.91,1.09c-1.13,0-2.6-.24-4.4-.73v-2c1.79.81,3.28,1.21,4.46,1.21,1,0,1.79-.2,2.39-.59.59-.39.89-.92.89-1.58,0-.51-.18-.91-.53-1.2s-1.08-.64-2.18-1.05l-1.35-.49c-1.35-.5-2.28-1.01-2.8-1.54-.52-.53-.78-1.23-.78-2.1,0-1.18.4-2.1,1.2-2.75s1.93-.97,3.39-.97c1.18,0,2.51.21,3.99.62h0Z"
            fill="#343434" />
        <path
            d="M111.77,397.05v-13.16h4.28c1.53,0,2.61.14,3.26.41,1.33.57,1.99,1.68,1.99,3.32,0,1.38-.54,2.46-1.61,3.25s-2.55,1.18-4.43,1.18h-1.48v4.99h-2.02.01ZM113.79,390.53h1.26c2.73,0,4.1-.96,4.1-2.87,0-.81-.26-1.38-.77-1.73s-1.38-.52-2.58-.52h-2.01v5.13h0Z"
            fill="#343434" />
        <path
            d="M123.97,397.05v-13.16h3.68c1.53,0,2.59.13,3.19.38,1.27.53,1.91,1.46,1.91,2.79,0,.92-.22,1.68-.66,2.29-.44.61-1.18,1.18-2.21,1.71l4.54,5.99h-2.45l-4.15-5.48h-1.83v5.48h-2.02,0ZM125.99,390.05h1.07c1.09,0,1.95-.24,2.58-.72s.95-1.13.95-1.94c0-.76-.24-1.28-.72-1.56s-1.36-.42-2.65-.42h-1.24v4.65h.01Z"
            fill="#343434" />
        <path
            d="M135.75,397.05v-1.52l8.25-10.12h-7.75v-1.52h10.04v1.52l-8.24,10.12h8.33v1.52h-10.63Z"
            fill="#343434" />
        <path d="M149.61,397.05v-13.16h8.89v1.52h-6.87v3.99h5.82v1.52h-5.82v4.61h7.34v1.52h-9.36Z"
            fill="#343434" />
        <path
            d="M161.38,397.05v-13.16h3.97c4.38,0,6.56,2.11,6.56,6.32,0,1.95-.48,3.52-1.43,4.73-.59.76-1.33,1.3-2.2,1.62-.87.33-2.03.49-3.48.49h-3.42ZM163.4,395.53h1.02c1.93,0,3.3-.38,4.12-1.15.82-.77,1.23-2.05,1.23-3.86s-.37-3.14-1.11-3.93c-.74-.79-1.97-1.18-3.69-1.18h-1.56v10.12h0Z"
            fill="#343434" />
        <path
            d="M172.82,397.05l5.19-13.16h2.02l5.19,13.16h-2.14l-1.24-3.29h-6.01l-1.26,3.29h-1.75ZM176.43,392.24h4.8l-2.41-6.29-2.39,6.29Z"
            fill="#343434" />
        <path
            d="M186.37,397.05v-1.52l8.25-10.12h-7.75v-1.52h10.04v1.52l-8.24,10.12h8.33v1.52h-10.63ZM190.76,382.75v-2.28h2.28v2.28h-2.28Z"
            fill="#343434" />
        <path
            d="M211.3,390.46c0-2.1.51-3.77,1.54-5.02s2.41-1.87,4.15-1.87,3.12.62,4.15,1.87,1.54,2.92,1.54,5.02-.52,3.78-1.54,5.03c-1.03,1.25-2.41,1.87-4.15,1.87s-3.12-.62-4.15-1.87-1.54-2.92-1.54-5.03ZM213.45,390.46c0,1.72.31,3.05.92,3.98.61.93,1.48,1.4,2.62,1.4s2.01-.47,2.62-1.4c.62-.93.92-2.26.92-3.98s-.31-3.04-.92-3.97c-.62-.93-1.49-1.4-2.62-1.4s-2.01.47-2.62,1.4-.92,2.26-.92,3.97Z"
            fill="#343434" />
        <path
            d="M225.65,397.05v-13.16h4.28c1.53,0,2.61.14,3.26.41,1.33.57,1.99,1.68,1.99,3.32,0,1.38-.54,2.46-1.61,3.25s-2.55,1.18-4.43,1.18h-1.48v4.99h-2.02,0ZM227.67,390.53h1.26c2.73,0,4.1-.96,4.1-2.87,0-.81-.26-1.38-.77-1.73s-1.38-.52-2.58-.52h-2.01v5.13h0Z"
            fill="#343434" />
        <path d="M240.78,397.05v-3.04h3.04v3.04h-3.04Z" fill="#343434" />
        <path
            d="M398.77,397.36l5.14-6.68-4.7-6.48h2.39l3.54,4.88,3.77-4.88h1.97l-4.79,6.19,5.06,6.97h-2.4l-3.89-5.36-4.13,5.36h-1.97.01Z"
            fill="#343434" />
        <path
            d="M411.42,397.36l5.14-6.68-4.7-6.48h2.39l3.54,4.88,3.77-4.88h1.97l-4.79,6.19,5.06,6.97h-2.4l-3.89-5.36-4.13,5.36h-1.97.01Z"
            fill="#343434" />
        <path d="M428.77,397.36v-3.04h3.04v3.04h-3.04Z" fill="#343434" />
        <path
            d="M436.73,397.36l5.14-6.68-4.7-6.48h2.39l3.54,4.88,3.77-4.88h1.97l-4.79,6.19,5.06,6.97h-2.4l-3.89-5.36-4.13,5.36h-1.97.01Z"
            fill="#343434" />
        <path
            d="M449.38,397.36l5.14-6.68-4.7-6.48h2.39l3.54,4.88,3.77-4.88h1.97l-4.79,6.19,5.06,6.97h-2.4l-3.89-5.36-4.13,5.36h-1.97.01Z"
            fill="#343434" />
        <path
            d="M99.12,426.83v-13.16h4.28c1.53,0,2.61.14,3.26.41,1.33.57,1.99,1.68,1.99,3.32,0,1.38-.54,2.46-1.61,3.25s-2.55,1.18-4.43,1.18h-1.48v4.99h-2.02.01ZM101.14,420.32h1.26c2.73,0,4.1-.96,4.1-2.87,0-.81-.26-1.38-.77-1.73s-1.38-.52-2.58-.52h-2.01v5.13h0Z"
            fill="#343434" />
        <path d="M114.74,426.83v-11.64h-5.06v-1.52h12.14v1.52h-5.07v11.64h-2.02,0Z"
            fill="#343434" />
        <path
            d="M123.66,413.68h2.02v7.99c0,1.39.22,2.4.66,3.03.44.62,1.15.94,2.14.94,1.04,0,1.79-.31,2.25-.94s.69-1.65.69-3.08v-7.94h1.76v7.64c0,1.65-.19,2.83-.58,3.55-.83,1.52-2.19,2.29-4.09,2.29-1.65,0-2.87-.45-3.66-1.35s-1.18-2.29-1.18-4.16v-7.96h-.01Z"
            fill="#343434" />
        <path
            d="M149.29,426.83v-13.16h4.25c3.08,0,4.61,1.02,4.61,3.06,0,.78-.27,1.45-.79,2.01-.53.56-1.27.97-2.22,1.21,2.44.5,3.66,1.66,3.66,3.48,0,1.04-.36,1.85-1.08,2.44-.46.39-.99.65-1.59.77-.59.13-1.55.19-2.87.19h-3.97ZM151.31,419.37h.71c2.72,0,4.08-.76,4.08-2.28,0-.75-.26-1.25-.79-1.51s-1.54-.39-3.06-.39h-.94v4.17h0ZM151.31,425.31h1.83c1.33,0,2.25-.14,2.75-.41s.75-.78.75-1.51c0-.85-.41-1.52-1.24-2.02-.82-.5-1.94-.75-3.36-.75h-.74v4.69h.01Z"
            fill="#343434" />
        <path
            d="M172.81,426.83l5.14-6.68-4.7-6.48h2.39l3.54,4.88,3.77-4.88h1.97l-4.79,6.19,5.06,6.97h-2.4l-3.89-5.36-4.13,5.36h-1.97,0Z"
            fill="#343434" />
        <path d="M190.16,426.83v-3.04h3.04v3.04h-3.04Z" fill="#343434" />
        <path
            d="M198.12,426.83l5.14-6.68-4.7-6.48h2.39l3.54,4.88,3.77-4.88h1.97l-4.79,6.19,5.06,6.97h-2.4l-3.89-5.36-4.13,5.36h-1.97,0Z"
            fill="#343434" />
        <path
            d="M210.77,426.83l5.14-6.68-4.7-6.48h2.39l3.54,4.88,3.77-4.88h1.97l-4.79,6.19,5.06,6.97h-2.4l-3.89-5.36-4.13,5.36h-1.97,0Z"
            fill="#343434" />
        <path
            d="M223.31,427.21l11.12-15.93h1.54l-11.12,15.93h-1.54ZM226.42,418.61c-.9,0-1.64-.33-2.23-.98-.58-.65-.87-1.48-.87-2.5s.29-1.85.87-2.5,1.32-.97,2.23-.97,1.65.33,2.24.97.87,1.48.87,2.5-.29,1.84-.87,2.5c-.58.65-1.33.98-2.24.98ZM226.42,417.59c.47,0,.85-.23,1.15-.68.29-.45.44-1.05.44-1.78s-.15-1.33-.44-1.79c-.29-.45-.68-.68-1.15-.68s-.85.23-1.14.68c-.29.45-.44,1.05-.44,1.79s.15,1.32.44,1.78c.29.45.67.68,1.14.68ZM232.86,426.83c-.9,0-1.64-.33-2.23-.98-.58-.65-.87-1.48-.87-2.49s.29-1.85.87-2.5,1.32-.98,2.23-.98,1.65.33,2.24.98c.58.65.87,1.49.87,2.5s-.29,1.84-.87,2.49-1.33.98-2.24.98ZM232.86,425.82c.47,0,.85-.23,1.15-.68.29-.45.44-1.05.44-1.78s-.15-1.33-.44-1.79c-.29-.45-.68-.68-1.15-.68s-.85.23-1.14.68c-.29.45-.44,1.05-.44,1.79s.15,1.32.44,1.78c.29.45.67.68,1.14.68Z"
            fill="#343434" />
        <path
            d="M411.42,427.15l5.14-6.68-4.7-6.48h2.39l3.54,4.88,3.77-4.88h1.97l-4.79,6.19,5.06,6.97h-2.4l-3.89-5.36-4.13,5.36h-1.97.01Z"
            fill="#343434" />
        <path d="M428.77,427.15v-3.04h3.04v3.04h-3.04Z" fill="#343434" />
        <path
            d="M436.73,427.15l5.14-6.68-4.7-6.48h2.39l3.54,4.88,3.77-4.88h1.97l-4.79,6.19,5.06,6.97h-2.4l-3.89-5.36-4.13,5.36h-1.97.01Z"
            fill="#343434" />
        <path
            d="M449.38,427.15l5.14-6.68-4.7-6.48h2.39l3.54,4.88,3.77-4.88h1.97l-4.79,6.19,5.06,6.97h-2.4l-3.89-5.36-4.13,5.36h-1.97.01Z"
            fill="#343434" />
        <path
            d="M107.14,445.56v1.75c-1.48-.57-2.8-.86-3.96-.86-1.83,0-2.74.62-2.74,1.85,0,.5.17.9.51,1.21.34.3.97.62,1.9.94l1.29.45,1.23.42c1.91.67,2.86,1.8,2.86,3.4,0,1.22-.49,2.19-1.46,2.92s-2.28,1.09-3.91,1.09c-1.13,0-2.6-.24-4.4-.73v-2c1.79.81,3.28,1.21,4.46,1.21,1,0,1.79-.2,2.39-.59.59-.39.89-.92.89-1.58,0-.51-.18-.91-.53-1.2s-1.08-.64-2.18-1.05l-1.35-.49c-1.35-.5-2.28-1.01-2.8-1.54-.52-.53-.78-1.23-.78-2.1,0-1.18.4-2.1,1.2-2.75s1.93-.97,3.39-.97c1.18,0,2.51.21,3.99.62h0Z"
            fill="#343434" />
        <path
            d="M111,445.25h2.02v7.99c0,1.39.22,2.4.66,3.03.44.62,1.15.94,2.14.94,1.04,0,1.79-.31,2.25-.94s.69-1.65.69-3.08v-7.94h1.76v7.64c0,1.65-.19,2.83-.58,3.55-.83,1.52-2.19,2.29-4.09,2.29-1.65,0-2.87-.45-3.66-1.35s-1.18-2.29-1.18-4.16v-7.96h-.01Z"
            fill="#343434" />
        <path
            d="M123.05,458.41v-13.16h2.43l2.89,8.1h.02l2.84-8.1h2.53v13.16h-1.65v-11.29h-.02l-2.96,8.51h-1.7l-2.95-8.27h-.02v11.05h-1.41Z"
            fill="#343434" />
        <path
            d="M134.86,458.41l5.19-13.16h2.02l5.19,13.16h-2.14l-1.24-3.29h-6.01l-1.26,3.29h-1.75ZM138.47,453.6h4.8l-2.41-6.29-2.39,6.29Z"
            fill="#343434" />
        <path
            d="M162.38,458.41v-13.16h4.28c1.53,0,2.61.14,3.26.41,1.33.57,1.99,1.68,1.99,3.32,0,1.38-.54,2.46-1.61,3.25s-2.55,1.18-4.43,1.18h-1.48v4.99h-2.02,0ZM164.4,451.9h1.26c2.73,0,4.1-.96,4.1-2.87,0-.81-.26-1.38-.77-1.73s-1.38-.52-2.58-.52h-2.01v5.13h0Z"
            fill="#343434" />
        <path d="M178.01,458.41v-11.64h-5.06v-1.52h12.14v1.52h-5.07v11.64h-2.02.01Z"
            fill="#343434" />
        <path
            d="M186.92,445.25h2.02v7.99c0,1.39.22,2.4.66,3.03.44.62,1.15.94,2.14.94,1.04,0,1.79-.31,2.25-.94s.69-1.65.69-3.08v-7.94h1.76v7.64c0,1.65-.19,2.83-.58,3.55-.83,1.52-2.19,2.29-4.09,2.29-1.65,0-2.87-.45-3.66-1.35-.79-.9-1.18-2.29-1.18-4.16v-7.96h-.01Z"
            fill="#343434" />
        <path
            d="M411.68,458.73l5.14-6.68-4.7-6.48h2.39l3.54,4.88,3.77-4.88h1.97l-4.79,6.19,5.06,6.97h-2.4l-3.89-5.36-4.13,5.36h-1.97.01Z"
            fill="#343434" />
        <path d="M429.03,458.73v-3.04h3.04v3.04h-3.04Z" fill="#343434" />
        <path
            d="M436.99,458.73l5.14-6.68-4.7-6.48h2.39l3.54,4.88,3.77-4.88h1.97l-4.79,6.19,5.06,6.97h-2.4l-3.89-5.36-4.13,5.36h-1.97.01Z"
            fill="#343434" />
        <path
            d="M449.64,458.73l5.14-6.68-4.7-6.48h2.39l3.54,4.88,3.77-4.88h1.97l-4.79,6.19,5.06,6.97h-2.4l-3.89-5.36-4.13,5.36h-1.97.01Z"
            fill="#343434" />
        <path
            d="M110.59,478.16v2.34c-1.98-.77-3.74-1.15-5.28-1.15-2.43,0-3.65.82-3.65,2.46,0,.67.23,1.2.68,1.61.46.41,1.3.82,2.53,1.25l1.72.6,1.64.56c2.54.89,3.81,2.41,3.81,4.54,0,1.62-.65,2.92-1.95,3.89s-3.04,1.46-5.22,1.46c-1.51,0-3.47-.32-5.87-.97v-2.67c2.39,1.08,4.37,1.61,5.95,1.61,1.33,0,2.39-.26,3.19-.79.79-.52,1.19-1.23,1.19-2.11,0-.67-.23-1.21-.7-1.6-.47-.39-1.44-.86-2.91-1.39l-1.8-.66c-1.8-.67-3.04-1.35-3.74-2.05-.7-.7-1.05-1.64-1.05-2.8,0-1.58.54-2.8,1.61-3.66,1.07-.87,2.58-1.3,4.52-1.3,1.58,0,3.35.28,5.32.83h.01Z"
            fill="#343434" stroke="#343434" stroke-miterlimit="10" stroke-width=".5" />
        <path
            d="M115.74,477.75h2.69v10.65c0,1.86.29,3.21.88,4.04s1.54,1.25,2.85,1.25c1.39,0,2.38-.42,2.99-1.25s.92-2.2.92-4.11v-10.58h2.35v10.19c0,2.2-.26,3.77-.78,4.73-1.1,2.03-2.92,3.05-5.46,3.05-2.2,0-3.82-.6-4.87-1.8s-1.58-3.05-1.58-5.55v-10.61h.01Z"
            fill="#343434" stroke="#343434" stroke-miterlimit="10" stroke-width=".5" />
        <path
            d="M131.81,495.29v-17.54h3.24l3.86,10.8h.03l3.79-10.8h3.38v17.54h-2.2v-15.05h-.03l-3.95,11.35h-2.27l-3.94-11.03h-.03v14.74h-1.88Z"
            fill="#343434" stroke="#343434" stroke-miterlimit="10" stroke-width=".5" />
        <path
            d="M147.56,495.29l6.92-17.54h2.69l6.92,17.54h-2.85l-1.66-4.39h-8.02l-1.68,4.39h-2.32,0ZM152.37,488.88h6.4l-3.22-8.38-3.19,8.38h.01Z"
            fill="#343434" stroke="#343434" stroke-miterlimit="10" stroke-width=".5" />
        <path
            d="M184.25,495.29v-17.54h5.71c2.03,0,3.49.18,4.35.55,1.77.77,2.66,2.24,2.66,4.43,0,1.84-.71,3.29-2.14,4.33-1.43,1.05-3.4,1.57-5.91,1.57h-1.97v6.66h-2.7ZM186.95,486.61h1.68c3.65,0,5.47-1.28,5.47-3.83,0-1.08-.34-1.85-1.03-2.31s-1.83-.7-3.44-.7h-2.68v6.84Z"
            fill="#343434" stroke="#343434" stroke-miterlimit="10" stroke-width=".5" />
        <path d="M201.04,495.29v-17.54h2.69v15.52h9.45v2.02h-12.14Z" fill="#343434" stroke="#343434"
            stroke-miterlimit="10" stroke-width=".5" />
        <path
            d="M216.9,495.29v-17.6h2.56l8.04,12.75h.03v-12.75h2.2v17.6h-2.49l-8.09-12.86h-.04v12.86h-2.21Z"
            fill="#343434" stroke="#343434" stroke-miterlimit="10" stroke-width=".5" />
        <path
            d="M377.98,495.61l6.86-8.9-6.27-8.64h3.19l4.73,6.51,5.03-6.51h2.62l-6.39,8.25,6.74,9.29h-3.19l-5.18-7.14-5.51,7.14h-2.63Z"
            fill="#343434" stroke="#343434" stroke-miterlimit="10" stroke-width=".5" />
        <path
            d="M394.85,495.61l6.86-8.9-6.27-8.64h3.19l4.73,6.51,5.03-6.51h2.62l-6.39,8.25,6.74,9.29h-3.19l-5.18-7.14-5.51,7.14h-2.63Z"
            fill="#343434" stroke="#343434" stroke-miterlimit="10" stroke-width=".5" />
        <path d="M417.98,495.61v-4.05h4.05v4.05h-4.05Z" fill="#343434" stroke="#343434"
            stroke-miterlimit="10" stroke-width=".5" />
        <path
            d="M428.59,495.61l6.86-8.9-6.27-8.64h3.19l4.73,6.51,5.03-6.51h2.62l-6.39,8.25,6.74,9.29h-3.19l-5.18-7.14-5.51,7.14h-2.63Z"
            fill="#343434" stroke="#343434" stroke-miterlimit="10" stroke-width=".5" />
        <path
            d="M445.46,495.61l6.86-8.9-6.27-8.64h3.19l4.73,6.51,5.03-6.51h2.62l-6.39,8.25,6.74,9.29h-3.19l-5.18-7.14-5.51,7.14h-2.63Z"
            fill="#343434" stroke="#343434" stroke-miterlimit="10" stroke-width=".5" />
        <line x1="92.85" y1="517.93" x2="125.35" y2="517.93" fill="none" stroke="#343434"
            stroke-miterlimit="10" stroke-width="2" />
        <line x1="139.84" y1="517.93" x2="426.09" y2="517.93" fill="none" stroke="#343434"
            stroke-dasharray="58.88 14.49" stroke-miterlimit="10" stroke-width="2" />
        <line x1="433.33" y1="517.93" x2="465.83" y2="517.93" fill="none" stroke="#343434"
            stroke-miterlimit="10" stroke-width="2" />
        <path
            d="M97.55,549.03l5.14-6.68-4.7-6.48h2.39l3.54,4.88,3.77-4.88h1.97l-4.79,6.19,5.06,6.97h-2.4l-3.89-5.36-4.13,5.36h-1.97.01Z"
            fill="#343434" />
        <path
            d="M110.2,549.03l5.14-6.68-4.7-6.48h2.39l3.54,4.88,3.77-4.88h1.97l-4.79,6.19,5.06,6.97h-2.4l-3.89-5.36-4.13,5.36h-1.97.01Z"
            fill="#343434" />
        <path
            d="M122.85,549.03l5.14-6.68-4.7-6.48h2.39l3.54,4.88,3.77-4.88h1.97l-4.79,6.19,5.06,6.97h-2.4l-3.89-5.36-4.13,5.36h-1.97,0Z"
            fill="#343434" />
        <path
            d="M135.51,549.03l5.14-6.68-4.7-6.48h2.39l3.54,4.88,3.77-4.88h1.97l-4.79,6.19,5.06,6.97h-2.4l-3.89-5.36-4.13,5.36h-1.97,0Z"
            fill="#343434" />
        <path
            d="M162.44,549.03v-13.16h2.02v6.45l5.51-6.45h2.04l-5.31,6.2,6.33,6.95h-2.43l-6.14-6.71v6.71h-2.02Z"
            fill="#343434" />
        <path
            d="M173.48,549.03l5.19-13.16h2.02l5.19,13.16h-2.14l-1.24-3.29h-6.01l-1.26,3.29h-1.75ZM177.09,544.22h4.8l-2.41-6.29-2.39,6.29Z"
            fill="#343434" />
        <path
            d="M196.36,536.19v1.75c-1.48-.57-2.8-.86-3.96-.86-1.83,0-2.74.62-2.74,1.85,0,.5.17.9.51,1.21.34.3.97.62,1.9.94l1.29.45,1.23.42c1.91.67,2.86,1.8,2.86,3.4,0,1.22-.49,2.19-1.46,2.92s-2.28,1.09-3.91,1.09c-1.13,0-2.6-.24-4.4-.73v-2c1.79.81,3.28,1.21,4.46,1.21,1,0,1.79-.2,2.39-.59.59-.39.89-.92.89-1.58,0-.51-.18-.91-.53-1.2-.35-.29-1.08-.64-2.18-1.05l-1.35-.49c-1.35-.5-2.28-1.01-2.8-1.54-.52-.53-.78-1.23-.78-2.1,0-1.18.4-2.1,1.2-2.75s1.93-.97,3.39-.97c1.18,0,2.51.21,3.99.62h0Z"
            fill="#343434" />
        <path
            d="M200.68,548.86v-1.71l.68.23c.94.31,1.68.46,2.23.46.96,0,1.64-.25,2.03-.75s.58-1.38.58-2.65v-7.04h-4.55v-1.52h6.57v7.49c0,1.33-.08,2.32-.24,2.97s-.46,1.22-.9,1.71c-.78.87-1.89,1.3-3.34,1.3-.79,0-1.8-.16-3.05-.49h0Z"
            fill="#343434" />
        <path d="M213.53,549.03v-13.16h8.89v1.52h-6.87v3.99h5.82v1.52h-5.82v4.61h7.34v1.52h-9.36Z"
            fill="#343434" />
        <path
            d="M225.85,549.03v-13.16h3.68c1.53,0,2.59.13,3.19.38,1.27.53,1.91,1.46,1.91,2.79,0,.92-.22,1.68-.66,2.29s-1.18,1.18-2.21,1.71l4.54,5.99h-2.45l-4.15-5.48h-1.83v5.48h-2.02,0ZM227.87,542.04h1.07c1.09,0,1.95-.24,2.58-.72s.95-1.13.95-1.94c0-.76-.24-1.28-.72-1.56s-1.36-.42-2.65-.42h-1.24v4.65h0Z"
            fill="#343434" />
        <line x1="92.85" y1="565.21" x2="465.83" y2="565.21" fill="none" stroke="#343434"
            stroke-miterlimit="10" stroke-width="2.25" />
        <path
            d="M211.69,604.02h-21.57l-.14-.22,12.53-23.4h16.9s1.06.45.89,1.44-4.25,8.84-4.25,8.84c0,0-.14.79-1.03.79s-27.08-.03-27.08-.03l6.55-11.04h-8.67"
            fill="none" stroke="#343434" stroke-miterlimit="10" stroke-width="2" />
        <line x1="180.74" y1="604.02" x2="187.94" y2="591.44" fill="none" stroke="#343434"
            stroke-miterlimit="10" stroke-width="2" />
        <line x1="202.5" y1="580.4" x2="194.48" y2="580.4" fill="none" stroke="#343434"
            stroke-miterlimit="10" stroke-width="2" />
        <path
            d="M232.83,600.73l5.14-6.68-4.7-6.48h2.39l3.54,4.88,3.77-4.88h1.97l-4.79,6.19,5.06,6.97h-2.4l-3.89-5.36-4.13,5.36h-1.97,0Z"
            fill="#343434" />
        <path
            d="M245.49,600.73l5.14-6.68-4.7-6.48h2.39l3.54,4.88,3.77-4.88h1.97l-4.79,6.19,5.06,6.97h-2.4l-3.89-5.36-4.13,5.36h-1.97,0Z"
            fill="#343434" />
        <path
            d="M258.14,600.73l5.14-6.68-4.7-6.48h2.39l3.54,4.88,3.77-4.88h1.97l-4.79,6.19,5.06,6.97h-2.4l-3.89-5.36-4.13,5.36h-1.97.01Z"
            fill="#343434" />
        <path
            d="M270.77,600.73l4.16-5.41-3.81-5.24h1.94l2.87,3.95,3.05-3.95h1.59l-3.88,5.01,4.1,5.64h-1.94l-3.15-4.34-3.35,4.34h-1.59.01Z"
            fill="#343434" />
        <path
            d="M281.01,600.73l4.16-5.41-3.81-5.24h1.94l2.87,3.95,3.05-3.95h1.59l-3.88,5.01,4.09,5.64h-1.94l-3.15-4.34-3.35,4.34h-1.59.02Z"
            fill="#343434" />
        <path
            d="M291.26,600.73l4.16-5.41-3.81-5.24h1.94l2.87,3.95,3.05-3.95h1.59l-3.88,5.01,4.09,5.64h-1.94l-3.15-4.34-3.35,4.34h-1.59.02Z"
            fill="#343434" />
        <path
            d="M301.5,600.73l4.16-5.41-3.81-5.24h1.94l2.87,3.95,3.05-3.95h1.59l-3.88,5.01,4.09,5.64h-1.94l-3.15-4.34-3.35,4.34h-1.59.02Z"
            fill="#343434" />
        <path
            d="M311.74,600.73l4.16-5.41-3.81-5.24h1.94l2.87,3.95,3.05-3.95h1.59l-3.88,5.01,4.09,5.64h-1.94l-3.15-4.34-3.35,4.34h-1.59.02Z"
            fill="#343434" />
        <path
            d="M321.99,600.73l4.16-5.41-3.81-5.24h1.94l2.87,3.95,3.05-3.95h1.59l-3.88,5.01,4.09,5.64h-1.94l-3.15-4.34-3.35,4.34h-1.59.02Z"
            fill="#343434" />
        <path
            d="M332.23,600.73l4.16-5.41-3.81-5.24h1.94l2.87,3.95,3.05-3.95h1.59l-3.88,5.01,4.09,5.64h-1.94l-3.15-4.34-3.35,4.34h-1.59.02Z"
            fill="#343434" />
        <path
            d="M342.47,600.73l4.16-5.41-3.81-5.24h1.94l2.87,3.95,3.05-3.95h1.59l-3.88,5.01,4.09,5.64h-1.94l-3.15-4.34-3.35,4.34h-1.59.02Z"
            fill="#343434" />
        <path
            d="M98.27,649.24v-11.28h1.73v5.53l4.72-5.53h1.75l-4.55,5.32,5.42,5.96h-2.08l-5.26-5.75v5.75s-1.73,0-1.73,0Z"
            fill="#343434" stroke="#343434" stroke-miterlimit="10" stroke-width=".5" />
        <path
            d="M107.73,649.24l4.45-11.28h1.73l4.45,11.28h-1.83l-1.06-2.82h-5.15l-1.08,2.82h-1.51ZM110.82,645.12h4.12l-2.07-5.39-2.05,5.39Z"
            fill="#343434" stroke="#343434" stroke-miterlimit="10" stroke-width=".5" />
        <path
            d="M120.09,649.24v-11.28h3.16c1.31,0,2.22.11,2.73.33,1.09.45,1.63,1.25,1.63,2.39,0,.79-.19,1.44-.57,1.96s-1.01,1.01-1.9,1.46l3.89,5.13h-2.1l-3.56-4.69h-1.56v4.69h-1.73,0ZM121.82,643.24h.91c.93,0,1.67-.21,2.21-.62s.82-.97.82-1.67c0-.65-.21-1.1-.62-1.34-.41-.24-1.17-.36-2.27-.36h-1.06v3.98h0Z"
            fill="#343434" stroke="#343434" stroke-miterlimit="10" stroke-width=".5" />
        <path d="M133.87,649.24v-9.98h-4.33v-1.3h10.41v1.3h-4.34v9.98h-1.74Z" fill="#343434"
            stroke="#343434" stroke-miterlimit="10" stroke-width=".5" />
        <path
            d="M140.27,649.24l4.45-11.28h1.73l4.45,11.28h-1.83l-1.06-2.82h-5.15l-1.08,2.82h-1.51ZM143.36,645.12h4.12l-2.07-5.39-2.05,5.39h0Z"
            fill="#343434" stroke="#343434" stroke-miterlimit="10" stroke-width=".5" />
        <path
            d="M364.67,649.24l4.41-5.72-4.03-5.55h2.05l3.04,4.18,3.23-4.18h1.69l-4.11,5.31,4.33,5.97h-2.05l-3.33-4.59-3.54,4.59h-1.69Z"
            fill="#343434" stroke="#343434" stroke-miterlimit="10" stroke-width=".5" />
        <path
            d="M375.51,649.24l4.41-5.72-4.03-5.55h2.05l3.04,4.18,3.23-4.18h1.69l-4.11,5.31,4.33,5.97h-2.05l-3.33-4.59-3.54,4.59h-1.69Z"
            fill="#343434" stroke="#343434" stroke-miterlimit="10" stroke-width=".5" />
        <path d="M390.38,649.24v-2.6h2.6v2.6h-2.6Z" fill="#343434" stroke="#343434"
            stroke-miterlimit="10" stroke-width=".5" />
        <path
            d="M397.2,649.24l4.41-5.72-4.03-5.55h2.05l3.04,4.18,3.23-4.18h1.69l-4.11,5.31,4.33,5.97h-2.05l-3.33-4.59-3.54,4.59h-1.69Z"
            fill="#343434" stroke="#343434" stroke-miterlimit="10" stroke-width=".5" />
        <path
            d="M408.05,649.24l4.41-5.72-4.03-5.55h2.05l3.04,4.18,3.23-4.18h1.69l-4.11,5.31,4.33,5.97h-2.05l-3.33-4.59-3.54,4.59h-1.69Z"
            fill="#343434" stroke="#343434" stroke-miterlimit="10" stroke-width=".5" />
        <path
            d="M431.65,649.24v-11.28h3.67c1.31,0,2.24.12,2.8.35,1.14.49,1.71,1.44,1.71,2.85,0,1.18-.46,2.11-1.38,2.79-.92.67-2.18,1.01-3.8,1.01h-1.27v4.28h-1.73ZM433.38,643.66h1.08c2.34,0,3.52-.82,3.52-2.46,0-.69-.22-1.19-.66-1.49s-1.18-.45-2.21-.45h-1.72v4.39h0Z"
            fill="#343434" stroke="#343434" stroke-miterlimit="10" stroke-width=".5" />
        <path d="M442.44,649.24v-11.28h1.73v9.98h6.07v1.3h-7.8Z" fill="#343434" stroke="#343434"
            stroke-miterlimit="10" stroke-width=".5" />
        <path
            d="M452.64,649.24v-11.31h1.64l5.17,8.19h.02v-8.19h1.42v11.31h-1.6l-5.2-8.27h-.03v8.27h-1.42Z"
            fill="#343434" stroke="#343434" stroke-miterlimit="10" stroke-width=".5" />
        <path
            d="M97.99,690.65v-13.16h3.6c3.97,0,5.96,2.11,5.96,6.32,0,1.95-.43,3.52-1.29,4.73-.54.76-1.21,1.3-2,1.62-.79.33-1.85.49-3.16.49,0,0-3.11,0-3.11,0ZM99.82,689.14h.92c1.75,0,3-.38,3.74-1.15s1.11-2.05,1.11-3.86-.33-3.14-1.01-3.93c-.67-.79-1.79-1.18-3.35-1.18h-1.42v10.12h.01Z"
            fill="#343434" />
        <path
            d="M109.19,690.65v-1.52l7.49-10.12h-7.04v-1.52h9.12v1.52l-7.49,10.12h7.56v1.52h-9.65.01Z"
            fill="#343434" />
        <path
            d="M121.37,690.65v-1.52h3.21v-10.12h-3.21v-1.52h8.26v1.52h-3.21v10.12h3.21v1.52h-8.26Z"
            fill="#343434" />
        <path
            d="M133.26,690.65v-13.16h8.07v1.52h-6.24v3.99h5.29v1.52h-5.29v4.61h6.67v1.52h-8.5,0ZM141.41,694.46c-.43.16-.84.25-1.24.25-1.22,0-1.82-.52-1.82-1.56,0-.77.45-1.6,1.36-2.49h1.19c-.82.88-1.23,1.59-1.23,2.13,0,.62.34.92,1.03.92.21,0,.45-.05.71-.14v.89Z"
            fill="#343434" />
        <path
            d="M144.32,690.65v-13.16h1.83v6.45l5-6.45h1.85l-4.82,6.2,5.74,6.95h-2.2l-5.57-6.71v6.71h-1.83Z"
            fill="#343434" />
        <path
            d="M155.65,677.5h1.83v7.99c0,1.39.2,2.4.6,3.03.4.62,1.05.94,1.94.94.94,0,1.62-.31,2.04-.94s.62-1.65.62-3.08v-7.94h1.6v7.64c0,1.65-.18,2.83-.53,3.55-.75,1.52-1.99,2.29-3.71,2.29-1.5,0-2.6-.45-3.32-1.35s-1.08-2.29-1.08-4.16v-7.96h.01Z"
            fill="#343434" />
        <path
            d="M167.55,690.48v-1.71l.61.23c.85.31,1.52.46,2.02.46.88,0,1.49-.25,1.84-.75.35-.5.53-1.38.53-2.65v-7.04h-4.13v-1.52h5.97v7.49c0,1.33-.07,2.32-.21,2.97-.14.65-.42,1.22-.82,1.71-.71.87-1.72,1.3-3.04,1.3-.71,0-1.64-.16-2.77-.49h0Z"
            fill="#343434" />
        <path d="M179.22,690.65v-13.16h8.07v1.52h-6.24v3.99h5.29v1.52h-5.29v4.61h6.67v1.52h-8.5Z"
            fill="#343434" />
        <path
            d="M189.57,690.65v-13.16h2.21l2.63,8.1h.02l2.58-8.1h2.3v13.16h-1.5v-11.29h-.02l-2.69,8.51h-1.55l-2.68-8.27h-.02v11.05h-1.28Z"
            fill="#343434" />
        <path
            d="M205.01,690.65v-5.38l-4.53-7.77h2.11l3.47,6.07,3.8-6.07h1.74l-4.76,7.77v5.38h-1.83Z"
            fill="#343434" />
        <path d="M225.12,685.08v-1.52h7.58v1.52h-7.58Z" fill="#343434" />
        <path
            d="M247.06,690.65v-1.52l7.49-10.12h-7.04v-1.52h9.12v1.52l-7.49,10.12h7.56v1.52h-9.65,0Z"
            fill="#343434" />
        <path
            d="M257.74,690.65l4.71-13.16h1.83l4.71,13.16h-1.94l-1.13-3.29h-5.46l-1.15,3.29h-1.58.01ZM261.02,685.84h4.36l-2.19-6.29-2.17,6.29h0Z"
            fill="#343434" />
        <path
            d="M271.24,690.65v-13.16h3.89c1.39,0,2.37.14,2.96.41,1.21.57,1.81,1.68,1.81,3.32,0,1.38-.49,2.46-1.46,3.25s-2.31,1.18-4.02,1.18h-1.34v4.99h-1.84ZM273.07,684.14h1.15c2.48,0,3.72-.96,3.72-2.87,0-.81-.23-1.38-.7-1.73s-1.25-.52-2.34-.52h-1.82v5.13h0Z"
            fill="#343434" />
        <path
            d="M282.32,690.65v-13.16h3.34c1.39,0,2.36.13,2.9.38,1.15.53,1.73,1.46,1.73,2.79,0,.92-.2,1.68-.6,2.29s-1.07,1.18-2.01,1.71l4.12,5.99h-2.22l-3.77-5.48h-1.66v5.48h-1.83ZM284.15,683.66h.97c.99,0,1.77-.24,2.35-.72.58-.48.87-1.13.87-1.94,0-.76-.22-1.28-.65-1.56s-1.24-.42-2.4-.42h-1.13v4.65h-.01Z"
            fill="#343434" />
        <path
            d="M292.21,690.65l4.71-13.16h1.83l4.71,13.16h-1.94l-1.13-3.29h-5.46l-1.15,3.29h-1.58.01ZM295.48,685.84h4.36l-2.19-6.29-2.17,6.29h0Z"
            fill="#343434" />
        <path
            d="M312.99,677.81v1.75c-1.35-.57-2.54-.86-3.59-.86-1.66,0-2.49.62-2.49,1.85,0,.5.15.9.46,1.21.31.3.88.62,1.72.94l1.17.45,1.12.42c1.73.67,2.6,1.8,2.6,3.4,0,1.22-.44,2.19-1.33,2.92-.88.73-2.07,1.09-3.55,1.09-1.03,0-2.36-.24-3.99-.73v-2c1.63.81,2.98,1.21,4.05,1.21.91,0,1.63-.2,2.17-.59s.81-.92.81-1.58c0-.51-.16-.91-.48-1.2-.32-.29-.98-.64-1.98-1.05l-1.23-.49c-1.22-.5-2.07-1.01-2.55-1.54-.48-.53-.71-1.23-.71-2.1,0-1.18.37-2.1,1.09-2.75.73-.65,1.75-.97,3.08-.97,1.07,0,2.28.21,3.62.63h0Z"
            fill="#343434" />
        <path d="M316,690.65v-1.52l7.5-10.12h-7.04v-1.52h9.12v1.52l-7.49,10.12h7.56v1.52h-9.65Z"
            fill="#343434" />
        <path
            d="M326.68,690.65l4.71-13.16h1.83l4.71,13.16h-1.94l-1.13-3.29h-5.46l-1.15,3.29h-1.58.01ZM329.95,685.84h4.36l-2.19-6.29-2.17,6.29h0Z"
            fill="#343434" />
        <path
            d="M338.93,690.65v-13.16h2.21l2.62,8.1h.02l2.58-8.1h2.3v13.16h-1.5v-11.29h-.02l-2.69,8.51h-1.55l-2.68-8.27h-.02v11.05h-1.28.01Z"
            fill="#343434" />
        <path
            d="M354.37,690.65v-5.38l-4.53-7.77h2.11l3.47,6.07,3.8-6.07h1.74l-4.76,7.77v5.38h-1.83,0Z"
            fill="#343434" />
        <path
            d="M374.64,690.65v-13.16h3.89c1.39,0,2.37.14,2.96.41,1.21.57,1.81,1.68,1.81,3.32,0,1.38-.49,2.46-1.46,3.25s-2.31,1.18-4.02,1.18h-1.34v4.99h-1.84ZM376.48,684.14h1.15c2.48,0,3.72-.96,3.72-2.87,0-.81-.23-1.38-.7-1.73s-1.25-.52-2.34-.52h-1.83v5.13h0Z"
            fill="#343434" />
        <path
            d="M384.59,684.07c0-2.1.47-3.77,1.4-5.02.94-1.25,2.19-1.87,3.77-1.87s2.83.62,3.77,1.87,1.4,2.92,1.4,5.02-.47,3.78-1.4,5.03-2.19,1.87-3.77,1.87-2.83-.62-3.77-1.87c-.93-1.25-1.4-2.92-1.4-5.03ZM386.54,684.07c0,1.72.28,3.05.83,3.98s1.35,1.4,2.38,1.4,1.83-.47,2.38-1.4c.56-.93.84-2.26.84-3.98s-.28-3.04-.84-3.97-1.35-1.4-2.38-1.4-1.82.47-2.38,1.4c-.56.93-.83,2.26-.83,3.97Z"
            fill="#343434" />
        <path
            d="M396.88,690.65v-13.2h1.74l5.48,9.56h.02v-9.56h1.5v13.2h-1.69l-5.51-9.65h-.03v9.65h-1.51Z"
            fill="#343434" />
        <path
            d="M407.57,684.07c0-2.1.47-3.77,1.4-5.02.94-1.25,2.19-1.87,3.77-1.87s2.83.62,3.77,1.87,1.4,2.92,1.4,5.02-.47,3.78-1.4,5.03-2.19,1.87-3.77,1.87-2.83-.62-3.77-1.87c-.93-1.25-1.4-2.92-1.4-5.03ZM409.52,684.07c0,1.72.28,3.05.83,3.98s1.35,1.4,2.38,1.4,1.83-.47,2.38-1.4c.56-.93.84-2.26.84-3.98s-.28-3.04-.84-3.97-1.35-1.4-2.38-1.4-1.82.47-2.38,1.4c-.56.93-.83,2.26-.83,3.97Z"
            fill="#343434" />
        <path
            d="M420.41,690.65l-1.78-13.16h1.56l1.45,10.93h.03l1.72-8.15h1.77l1.7,8.03h.02l1.53-10.81h1.4l-1.96,13.16h-1.99l-1.65-7.72h-.02l-1.66,7.72h-2.12Z"
            fill="#343434" />
        <path
            d="M431.34,690.65v-13.2h1.74l5.48,9.56h.02v-9.56h1.5v13.2h-1.69l-5.51-9.65h-.03v9.65h-1.51Z"
            fill="#343434" />
        <path
            d="M443.07,690.65v-1.52h3.21v-10.12h-3.21v-1.52h8.26v1.52h-3.21v10.12h3.21v1.52h-8.26Z"
            fill="#343434" />
        <path d="M454.96,690.65v-13.16h8.07v1.52h-6.24v3.99h5.29v1.52h-5.29v4.61h6.67v1.52h-8.5Z"
            fill="#343434" />
        <circle cx="99.56" cy="77.93" r="44.31" fill="#65c3ef" />
        <path
            d="M105.91,87.49h-12.8l-2.23,7.97h-9.98l14.21-42.66h8.78l14.31,42.66h-10.03l-2.26-7.97h0ZM95.35,79.55h8.33l-4.18-14.79-4.15,14.79Z"
            fill="#fff" />
        <circle cx="244" cy="343.2" r="44.31" fill="#65c3ef" />
        <path
            d="M229,364.52v-42.66h13.91c4.98,0,8.77,1.01,11.37,3.02,2.6,2.01,3.9,4.93,3.9,8.76,0,2.21-.46,4.09-1.38,5.65-.92,1.56-2.28,2.71-4.07,3.46,2.02.59,3.57,1.68,4.66,3.28,1.08,1.6,1.62,3.56,1.62,5.86,0,4.18-1.2,7.32-3.6,9.42s-5.96,3.17-10.68,3.21h-15.73ZM238.33,339.65h4.87c2.04-.02,3.49-.43,4.36-1.23.87-.8,1.3-1.99,1.3-3.56,0-1.8-.47-3.1-1.41-3.89s-2.46-1.19-4.55-1.19h-4.58v9.87h.01ZM238.33,346.39v10.22h6.12c1.68,0,2.98-.42,3.88-1.27.9-.85,1.36-2.05,1.36-3.59,0-3.55-1.6-5.34-4.81-5.36h-6.55Z"
            fill="#fff" />
        <circle cx="510.14" cy="294.16" r="44.31" fill="#65c3ef" />
        <path
            d="M526.32,301.06c-.12,2.97-.85,5.59-2.18,7.87s-3.2,4.04-5.6,5.29c-2.4,1.25-5.15,1.88-8.23,1.88-5.09,0-9.1-1.83-12.02-5.48-2.93-3.65-4.39-8.81-4.39-15.47v-2.11c0-4.18.66-7.84,1.98-10.97s3.22-5.56,5.71-7.27c2.48-1.71,5.36-2.56,8.62-2.56,4.7,0,8.48,1.36,11.33,4.09,2.85,2.72,4.48,6.48,4.87,11.26h-9.31c-.07-2.6-.67-4.46-1.78-5.6-1.12-1.13-2.82-1.7-5.11-1.7s-4.03.96-5.11,2.87c-1.08,1.92-1.65,4.97-1.7,9.17v3.02c0,4.55.52,7.8,1.56,9.76,1.04,1.95,2.82,2.93,5.36,2.93,2.15,0,3.79-.56,4.92-1.67,1.13-1.11,1.74-2.88,1.81-5.3h9.28-.01Z"
            fill="#fff" />
        <circle cx="510.14" cy="489.24" r="44.31" fill="#65c3ef" />
        <path
            d="M494.93,510.56v-42.66h12.48c3.42,0,6.5.85,9.23,2.56s4.86,4.12,6.4,7.24c1.53,3.12,2.31,6.61,2.33,10.47v1.96c0,3.91-.75,7.41-2.25,10.5s-3.61,5.52-6.33,7.27c-2.72,1.75-5.76,2.63-9.11,2.65h-12.75ZM504.26,475.85v26.81h3.25c2.68,0,4.73-1.05,6.17-3.15s2.15-5.22,2.15-9.36v-1.85c0-4.12-.72-7.23-2.15-9.32s-3.53-3.13-6.28-3.13h-3.14,0Z"
            fill="#fff" />
        <circle cx="515.83" cy="187.88" r="44.31" fill="#65c3ef" />
        <path
            d="M526.49,191.1h-14.68v10.2h17.34v7.91h-26.68v-42.66h26.73v7.94h-17.4v8.99h14.68v7.62h0Z"
            fill="#fff" />
        <circle cx="44.31" cy="182.1" r="44.31" fill="#65c3ef" />
        <path d="M55.75,186.44h-15.06v16.99h-9.34v-42.66h25.91v7.94h-16.57v9.81h15.06v7.91h0Z"
            fill="#fff" />
    </g>
</svg>